<svg width="70" height="75" viewBox="0 0 70 75" fill="none" xmlns="http://www.w3.org/2000/svg">
<path d="M68.75 -0.5H21.25C20.9185 -0.5 20.6005 -0.368304 20.3661 -0.133884C20.1317 0.100537 20 0.418479 20 0.75V10.75H10C9.66848 10.75 9.35054 10.8817 9.11612 11.1161C8.8817 11.3505 8.75 11.6685 8.75 12V59.5H1.25C0.918479 59.5 0.600537 59.6317 0.366117 59.8661C0.131696 60.1005 0 60.4185 0 60.75V65.75C0.00258067 68.0699 0.925282 70.294 2.56567 71.9343C4.20605 73.5747 6.43015 74.4974 8.75 74.5H52.5C54.157 74.498 55.7456 73.8389 56.9173 72.6673C58.0889 71.4956 58.748 69.907 58.75 68.25V63.25H68.75C69.0815 63.25 69.3995 63.1183 69.6339 62.8839C69.8683 62.6495 70 62.3315 70 62V0.75C70 0.418479 69.8683 0.100537 69.6339 -0.133884C69.3995 -0.368304 69.0815 -0.5 68.75 -0.5ZM8.75 72C7.093 71.998 5.50442 71.3389 4.33274 70.1673C3.16106 68.9956 2.50195 67.407 2.5 65.75V62H46.25V68.25C46.2527 68.639 46.292 69.0268 46.3671 69.4085C46.3899 69.5294 46.4265 69.6436 46.4561 69.7619C46.5174 70.0133 46.5944 70.2607 46.6866 70.5025C46.7366 70.6296 46.7904 70.7525 46.8479 70.8753C46.9526 71.0987 47.0705 71.3158 47.201 71.5253C47.2685 71.634 47.3322 71.7435 47.4061 71.8477C47.4409 71.8969 47.467 71.9521 47.503 72.0001L8.75 72ZM56.25 68.25C56.25 69.2446 55.8549 70.1984 55.1516 70.9016C54.4484 71.6049 53.4946 72 52.5 72C51.5054 72 50.5516 71.6049 49.8484 70.9016C49.1451 70.1984 48.75 69.2446 48.75 68.25V60.75C48.75 60.4185 48.6183 60.1005 48.3839 59.8661C48.1495 59.6317 47.8315 59.5 47.5 59.5H11.25V13.25H56.25V68.25ZM67.5 60.75H58.75V12C58.75 11.6685 58.6183 11.3505 58.3839 11.1161C58.1495 10.8817 57.8315 10.75 57.5 10.75H22.5V2H67.5V60.75Z" fill="#151515"/>
<path d="M47.5 19.5H20C19.6685 19.5 19.3505 19.6317 19.1161 19.8661C18.8817 20.1005 18.75 20.4185 18.75 20.75V28.25C18.75 28.5815 18.8817 28.8995 19.1161 29.1339C19.3505 29.3683 19.6685 29.5 20 29.5H47.5C47.8315 29.5 48.1495 29.3683 48.3839 29.1339C48.6183 28.8995 48.75 28.5815 48.75 28.25V20.75C48.75 20.4185 48.6183 20.1005 48.3839 19.8661C48.1495 19.6317 47.8315 19.5 47.5 19.5ZM46.25 27H21.25V22H46.25V27Z" fill="#151515"/>
<path d="M47.5 34.5H25C24.6685 34.5 24.3505 34.6317 24.1161 34.8661C23.8817 35.1005 23.75 35.4185 23.75 35.75C23.75 36.0815 23.8817 36.3995 24.1161 36.6339C24.3505 36.8683 24.6685 37 25 37H47.5C47.8315 37 48.1495 36.8683 48.3839 36.6339C48.6183 36.3995 48.75 36.0815 48.75 35.75C48.75 35.4185 48.6183 35.1005 48.3839 34.8661C48.1495 34.6317 47.8315 34.5 47.5 34.5Z" fill="#151515"/>
<path d="M47.5 42H20C19.6685 42 19.3505 42.1317 19.1161 42.3661C18.8817 42.6005 18.75 42.9185 18.75 43.25C18.75 43.5815 18.8817 43.8995 19.1161 44.1339C19.3505 44.3683 19.6685 44.5 20 44.5H47.5C47.8315 44.5 48.1495 44.3683 48.3839 44.1339C48.6183 43.8995 48.75 43.5815 48.75 43.25C48.75 42.9185 48.6183 42.6005 48.3839 42.3661C48.1495 42.1317 47.8315 42 47.5 42Z" fill="#151515"/>
<path d="M47.5 49.5H20C19.6685 49.5 19.3505 49.6317 19.1161 49.8661C18.8817 50.1005 18.75 50.4185 18.75 50.75C18.75 51.0815 18.8817 51.3995 19.1161 51.6339C19.3505 51.8683 19.6685 52 20 52H47.5C47.8315 52 48.1495 51.8683 48.3839 51.6339C48.6183 51.3995 48.75 51.0815 48.75 50.75C48.75 50.4185 48.6183 50.1005 48.3839 49.8661C48.1495 49.6317 47.8315 49.5 47.5 49.5Z" fill="#151515"/>
</svg>
