<svg width="94" height="70" viewBox="0 0 94 70" fill="none" xmlns="http://www.w3.org/2000/svg">
<path d="M18.5937 50.2471H13.1623V20.7065H41.3941V50.2471H35.9815H18.5937Z" stroke="#231F20" stroke-width="3" stroke-miterlimit="10" stroke-linecap="round" stroke-linejoin="round"/>
<path d="M50.9294 20.7065H61.0256" stroke="#231F20" stroke-width="3" stroke-miterlimit="10" stroke-linecap="round" stroke-linejoin="round"/>
<path d="M11.6667 11.6665H43.0769" stroke="#231F20" stroke-width="3" stroke-miterlimit="10" stroke-linecap="round" stroke-linejoin="round"/>
<path d="M50.9294 30.3262H71.8696" stroke="#231F20" stroke-width="3" stroke-miterlimit="10" stroke-linecap="round" stroke-linejoin="round"/>
<path d="M50.9294 39.9453H82.5267" stroke="#231F20" stroke-width="3" stroke-miterlimit="10" stroke-linecap="round" stroke-linejoin="round"/>
<path d="M50.9294 49.5645H82.5267" stroke="#231F20" stroke-width="3" stroke-miterlimit="10" stroke-linecap="round" stroke-linejoin="round"/>
<path d="M70.8413 20.7065H80.9375" stroke="#231F20" stroke-width="3" stroke-miterlimit="10" stroke-linecap="round" stroke-linejoin="round"/>
<path d="M32.5975 33.0462C32.5975 35.9816 30.2136 38.3654 27.2783 38.3654C24.3429 38.3654 21.9591 35.9816 21.9591 33.0462C21.9591 30.1109 24.3429 27.7271 27.2783 27.7271C30.2136 27.7271 32.5975 30.1109 32.5975 33.0462Z" stroke="#231F20" stroke-width="3" stroke-miterlimit="10" stroke-linecap="round" stroke-linejoin="round"/>
<path d="M18.5937 50.2475C18.5937 50.2475 18.0328 43.8906 24.0157 43.8906H31.1204C34.2988 43.8906 35.9815 48.7517 35.9815 50.2475" stroke="#231F20" stroke-width="3" stroke-miterlimit="10" stroke-linecap="round" stroke-linejoin="round"/>
<rect x="1.5" y="1.5" width="90.3333" height="67" stroke="#151515" stroke-width="3"/>
</svg>
