<svg width="100" height="72" viewBox="0 0 100 72" fill="none" xmlns="http://www.w3.org/2000/svg">
<g clip-path="url(#clip0_227_671)">
<mask id="path-1-inside-1_227_671" fill="white">
<path fill-rule="evenodd" clip-rule="evenodd" d="M7.5765 34.1797C-0.561522 30.0212 0.333659 25.3907 8.55306 25.8708L10.3923 29.3213L14.1846 17.5293C15.6738 12.8907 18.1478 8.68331 23.0143 8.68331H52.6042V13.322H24.6257C20.9229 13.322 19.0267 16.5284 17.8792 20.0603L14.3229 31.9336H52.5716V53.2227C52.5865 55.0592 53.3226 56.8162 54.6213 58.1148C55.9199 59.4134 57.6769 60.1495 59.5133 60.1644H91.1458L90.9261 63.7614V68.6442C90.924 69.3767 90.6315 70.0784 90.1128 70.5955C89.5942 71.1126 88.8916 71.403 88.1592 71.403H76.3997C75.6673 71.403 74.9648 71.1126 74.4461 70.5955C73.9274 70.0784 73.635 69.3767 73.6328 68.6442V66.4389H17.9036V68.6605C17.9015 69.3915 17.6102 70.092 17.0932 70.6089C16.5763 71.1258 15.8759 71.4172 15.1449 71.4193H3.35286C2.62044 71.4193 1.91789 71.1289 1.39922 70.6118C0.880557 70.0946 0.588092 69.393 0.585938 68.6605V62.2885C0.577877 62.1448 0.577877 62.0008 0.585938 61.8571C-0.276692 50.4558 -1.52995 40.0879 7.5765 34.1797ZM61.1247 5.24093H67.7653V9.5378H64.9007C64.2818 9.54204 63.6894 9.78922 63.251 10.2261C62.8126 10.663 62.5634 11.2545 62.557 11.8734V47.9249C62.5613 48.5444 62.8098 49.1372 63.2487 49.5745C63.6875 50.0118 64.2812 50.2583 64.9007 50.2605H93.4489C94.0684 50.2583 94.6621 50.0118 95.101 49.5745C95.5398 49.1372 95.7884 48.5444 95.7926 47.9249V11.8734C95.7863 11.2545 95.537 10.663 95.0986 10.2261C94.6602 9.78922 94.0678 9.54204 93.4489 9.5378H90.5843V5.24093H97.2249C97.9596 5.2452 98.663 5.53894 99.1825 6.05845C99.702 6.57795 99.9957 7.28132 100 8.01599V51.4567C99.9936 52.19 99.6989 52.8913 99.1796 53.4091C98.6604 53.9268 97.9582 54.2194 97.2249 54.2237H61.1247C60.3914 54.2194 59.6892 53.9268 59.17 53.4091C58.6507 52.8913 58.356 52.19 58.3496 51.4567V8.01599C58.3496 7.28 58.642 6.57415 59.1624 6.05373C59.6828 5.5333 60.3887 5.24093 61.1247 5.24093ZM73.8118 41.2028C73.4169 41.2028 73.0381 41.0459 72.7588 40.7667C72.4795 40.4874 72.3226 40.1086 72.3226 39.7136C72.3226 39.3186 72.4795 38.9398 72.7588 38.6605C73.0381 38.3812 73.4169 38.2243 73.8118 38.2243H84.5459C84.9409 38.2243 85.3197 38.3812 85.599 38.6605C85.8783 38.9398 86.0352 39.3186 86.0352 39.7136C86.0352 40.1086 85.8783 40.4874 85.599 40.7667C85.3197 41.0459 84.9409 41.2028 84.5459 41.2028H73.8118ZM70.638 32.251C70.2431 32.251 69.8643 32.0941 69.585 31.8148C69.3057 31.5355 69.1488 31.1567 69.1488 30.7618C69.1488 30.3668 69.3057 29.988 69.585 29.7087C69.8643 29.4294 70.2431 29.2725 70.638 29.2725H87.7279C88.1228 29.2725 88.5016 29.4294 88.7809 29.7087C89.0602 29.988 89.2171 30.3668 89.2171 30.7618C89.2171 31.1567 89.0602 31.5355 88.7809 31.8148C88.5016 32.0941 88.1228 32.251 87.7279 32.251H70.638ZM67.8385 23.226C67.6343 23.2411 67.429 23.2139 67.2358 23.1461C67.0424 23.0784 66.8652 22.9714 66.7151 22.832C66.565 22.6926 66.4453 22.5238 66.3634 22.336C66.2815 22.1482 66.2393 21.9456 66.2393 21.7408C66.2393 21.5359 66.2815 21.3333 66.3634 21.1455C66.4453 20.9578 66.565 20.7889 66.7151 20.6495C66.8652 20.5101 67.0424 20.4032 67.2358 20.3354C67.429 20.2676 67.6343 20.2404 67.8385 20.2556H90.5111C90.7154 20.2404 90.9206 20.2676 91.1139 20.3354C91.3072 20.4032 91.4844 20.5101 91.6345 20.6495C91.7846 20.7889 91.9043 20.9578 91.9862 21.1455C92.0681 21.3333 92.1103 21.5359 92.1103 21.7408C92.1103 21.9456 92.0681 22.1482 91.9862 22.336C91.9043 22.5238 91.7846 22.6926 91.6345 22.832C91.4844 22.9714 91.3072 23.0784 91.1139 23.1461C90.9206 23.2139 90.7154 23.2411 90.5111 23.226H67.8385ZM71.6146 3.8656H74.7559C74.8479 2.8262 75.3259 1.85895 76.0956 1.1544C76.8653 0.449847 77.8709 0.059082 78.9144 0.059082C79.9579 0.059082 80.9635 0.449847 81.7332 1.1544C82.5029 1.85895 82.9809 2.8262 83.0729 3.8656H86.7513C86.8737 3.86769 86.9904 3.91724 87.077 4.00378C87.1635 4.09032 87.2131 4.2071 87.2152 4.32947V10.5795C87.2131 10.7018 87.1635 10.8186 87.077 10.9052C86.9904 10.9917 86.8737 11.0412 86.7513 11.0433H71.6146C71.4922 11.0412 71.3754 10.9917 71.2889 10.9052C71.2024 10.8186 71.1528 10.7018 71.1507 10.5795V4.32947C71.1507 4.20644 71.1996 4.08846 71.2866 4.00147C71.3736 3.91447 71.4916 3.8656 71.6146 3.8656ZM77.1973 5.7699C77.4887 6.17792 77.8739 6.51003 78.3203 6.73832C78.6767 6.84009 79.0544 6.84009 79.4108 6.73832C79.9853 6.42672 80.4446 5.93892 80.721 5.34672C80.7338 5.19508 80.7338 5.04263 80.721 4.89099C80.721 4.64519 80.6726 4.4018 80.5786 4.17471C80.4845 3.94762 80.3466 3.74128 80.1728 3.56747C79.999 3.39366 79.7927 3.25579 79.5656 3.16173C79.3385 3.06766 79.0951 3.01925 78.8493 3.01925C78.6035 3.01925 78.3601 3.06766 78.133 3.16173C77.9059 3.25579 77.6996 3.39366 77.5258 3.56747C77.352 3.74128 77.2141 3.94762 77.12 4.17471C77.026 4.4018 76.9775 4.64519 76.9775 4.89099C76.9777 5.18775 77.0386 5.48132 77.1566 5.75362L77.1973 5.7699ZM22.6725 47.7702L12.1582 46.4519C9.7168 46.1752 9.01693 47.2168 9.86328 49.349L10.9945 52.0834C11.3065 52.7467 11.7968 53.3102 12.4105 53.711C13.1227 54.1251 13.9304 54.3467 14.7542 54.3539L24.0967 54.4271C26.3509 54.4271 27.3519 53.5238 26.6195 51.4486C26.3706 50.5245 25.8632 49.6905 25.1568 49.0447C24.4505 48.3989 23.5745 47.9681 22.6318 47.8028L22.6725 47.7702Z"/>
</mask>
<path fill-rule="evenodd" clip-rule="evenodd" d="M7.5765 34.1797C-0.561522 30.0212 0.333659 25.3907 8.55306 25.8708L10.3923 29.3213L14.1846 17.5293C15.6738 12.8907 18.1478 8.68331 23.0143 8.68331H52.6042V13.322H24.6257C20.9229 13.322 19.0267 16.5284 17.8792 20.0603L14.3229 31.9336H52.5716V53.2227C52.5865 55.0592 53.3226 56.8162 54.6213 58.1148C55.9199 59.4134 57.6769 60.1495 59.5133 60.1644H91.1458L90.9261 63.7614V68.6442C90.924 69.3767 90.6315 70.0784 90.1128 70.5955C89.5942 71.1126 88.8916 71.403 88.1592 71.403H76.3997C75.6673 71.403 74.9648 71.1126 74.4461 70.5955C73.9274 70.0784 73.635 69.3767 73.6328 68.6442V66.4389H17.9036V68.6605C17.9015 69.3915 17.6102 70.092 17.0932 70.6089C16.5763 71.1258 15.8759 71.4172 15.1449 71.4193H3.35286C2.62044 71.4193 1.91789 71.1289 1.39922 70.6118C0.880557 70.0946 0.588092 69.393 0.585938 68.6605V62.2885C0.577877 62.1448 0.577877 62.0008 0.585938 61.8571C-0.276692 50.4558 -1.52995 40.0879 7.5765 34.1797ZM61.1247 5.24093H67.7653V9.5378H64.9007C64.2818 9.54204 63.6894 9.78922 63.251 10.2261C62.8126 10.663 62.5634 11.2545 62.557 11.8734V47.9249C62.5613 48.5444 62.8098 49.1372 63.2487 49.5745C63.6875 50.0118 64.2812 50.2583 64.9007 50.2605H93.4489C94.0684 50.2583 94.6621 50.0118 95.101 49.5745C95.5398 49.1372 95.7884 48.5444 95.7926 47.9249V11.8734C95.7863 11.2545 95.537 10.663 95.0986 10.2261C94.6602 9.78922 94.0678 9.54204 93.4489 9.5378H90.5843V5.24093H97.2249C97.9596 5.2452 98.663 5.53894 99.1825 6.05845C99.702 6.57795 99.9957 7.28132 100 8.01599V51.4567C99.9936 52.19 99.6989 52.8913 99.1796 53.4091C98.6604 53.9268 97.9582 54.2194 97.2249 54.2237H61.1247C60.3914 54.2194 59.6892 53.9268 59.17 53.4091C58.6507 52.8913 58.356 52.19 58.3496 51.4567V8.01599C58.3496 7.28 58.642 6.57415 59.1624 6.05373C59.6828 5.5333 60.3887 5.24093 61.1247 5.24093ZM73.8118 41.2028C73.4169 41.2028 73.0381 41.0459 72.7588 40.7667C72.4795 40.4874 72.3226 40.1086 72.3226 39.7136C72.3226 39.3186 72.4795 38.9398 72.7588 38.6605C73.0381 38.3812 73.4169 38.2243 73.8118 38.2243H84.5459C84.9409 38.2243 85.3197 38.3812 85.599 38.6605C85.8783 38.9398 86.0352 39.3186 86.0352 39.7136C86.0352 40.1086 85.8783 40.4874 85.599 40.7667C85.3197 41.0459 84.9409 41.2028 84.5459 41.2028H73.8118ZM70.638 32.251C70.2431 32.251 69.8643 32.0941 69.585 31.8148C69.3057 31.5355 69.1488 31.1567 69.1488 30.7618C69.1488 30.3668 69.3057 29.988 69.585 29.7087C69.8643 29.4294 70.2431 29.2725 70.638 29.2725H87.7279C88.1228 29.2725 88.5016 29.4294 88.7809 29.7087C89.0602 29.988 89.2171 30.3668 89.2171 30.7618C89.2171 31.1567 89.0602 31.5355 88.7809 31.8148C88.5016 32.0941 88.1228 32.251 87.7279 32.251H70.638ZM67.8385 23.226C67.6343 23.2411 67.429 23.2139 67.2358 23.1461C67.0424 23.0784 66.8652 22.9714 66.7151 22.832C66.565 22.6926 66.4453 22.5238 66.3634 22.336C66.2815 22.1482 66.2393 21.9456 66.2393 21.7408C66.2393 21.5359 66.2815 21.3333 66.3634 21.1455C66.4453 20.9578 66.565 20.7889 66.7151 20.6495C66.8652 20.5101 67.0424 20.4032 67.2358 20.3354C67.429 20.2676 67.6343 20.2404 67.8385 20.2556H90.5111C90.7154 20.2404 90.9206 20.2676 91.1139 20.3354C91.3072 20.4032 91.4844 20.5101 91.6345 20.6495C91.7846 20.7889 91.9043 20.9578 91.9862 21.1455C92.0681 21.3333 92.1103 21.5359 92.1103 21.7408C92.1103 21.9456 92.0681 22.1482 91.9862 22.336C91.9043 22.5238 91.7846 22.6926 91.6345 22.832C91.4844 22.9714 91.3072 23.0784 91.1139 23.1461C90.9206 23.2139 90.7154 23.2411 90.5111 23.226H67.8385ZM71.6146 3.8656H74.7559C74.8479 2.8262 75.3259 1.85895 76.0956 1.1544C76.8653 0.449847 77.8709 0.059082 78.9144 0.059082C79.9579 0.059082 80.9635 0.449847 81.7332 1.1544C82.5029 1.85895 82.9809 2.8262 83.0729 3.8656H86.7513C86.8737 3.86769 86.9904 3.91724 87.077 4.00378C87.1635 4.09032 87.2131 4.2071 87.2152 4.32947V10.5795C87.2131 10.7018 87.1635 10.8186 87.077 10.9052C86.9904 10.9917 86.8737 11.0412 86.7513 11.0433H71.6146C71.4922 11.0412 71.3754 10.9917 71.2889 10.9052C71.2024 10.8186 71.1528 10.7018 71.1507 10.5795V4.32947C71.1507 4.20644 71.1996 4.08846 71.2866 4.00147C71.3736 3.91447 71.4916 3.8656 71.6146 3.8656ZM77.1973 5.7699C77.4887 6.17792 77.8739 6.51003 78.3203 6.73832C78.6767 6.84009 79.0544 6.84009 79.4108 6.73832C79.9853 6.42672 80.4446 5.93892 80.721 5.34672C80.7338 5.19508 80.7338 5.04263 80.721 4.89099C80.721 4.64519 80.6726 4.4018 80.5786 4.17471C80.4845 3.94762 80.3466 3.74128 80.1728 3.56747C79.999 3.39366 79.7927 3.25579 79.5656 3.16173C79.3385 3.06766 79.0951 3.01925 78.8493 3.01925C78.6035 3.01925 78.3601 3.06766 78.133 3.16173C77.9059 3.25579 77.6996 3.39366 77.5258 3.56747C77.352 3.74128 77.2141 3.94762 77.12 4.17471C77.026 4.4018 76.9775 4.64519 76.9775 4.89099C76.9777 5.18775 77.0386 5.48132 77.1566 5.75362L77.1973 5.7699ZM22.6725 47.7702L12.1582 46.4519C9.7168 46.1752 9.01693 47.2168 9.86328 49.349L10.9945 52.0834C11.3065 52.7467 11.7968 53.3102 12.4105 53.711C13.1227 54.1251 13.9304 54.3467 14.7542 54.3539L24.0967 54.4271C26.3509 54.4271 27.3519 53.5238 26.6195 51.4486C26.3706 50.5245 25.8632 49.6905 25.1568 49.0447C24.4505 48.3989 23.5745 47.9681 22.6318 47.8028L22.6725 47.7702Z" stroke="#151515" stroke-width="4" mask="url(#path-1-inside-1_227_671)"/>
<path d="M12.055 32.7454C11.7682 32.7454 11.0214 32.5832 11.2875 33.0356C11.295 33.0484 11.9611 33.2097 11.6712 33.2097C11.6118 33.2097 11.2864 33.1627 11.3907 33.2968C11.4338 33.3522 11.5326 33.5202 11.5326 33.3548C11.5326 33.093 11.6666 32.8009 11.7647 32.5583C11.9251 32.1622 12.0653 31.7576 12.2097 31.3588C12.401 30.8308 12.5157 30.2563 12.8418 29.7819C12.9605 29.6093 13.0417 29.4545 13.0417 29.2402C13.0417 29.1029 13.0031 28.9305 13.0997 28.8242C13.2219 28.6899 13.2212 28.4436 13.2771 28.276C13.3392 28.0897 13.4219 27.906 13.506 27.7278C13.71 27.296 13.8212 26.6561 13.8994 26.1865C13.9528 25.8665 14.3197 25.0854 14.1381 24.7676C13.9853 24.5004 13.1668 25.6542 13.1094 25.7737C12.9242 26.1596 12.8213 26.6433 12.7257 27.0603C12.6117 27.5576 12.6333 28.0911 12.4613 28.5727C12.3588 28.8597 12.2128 29.0751 12.0808 29.3466C12.0138 29.4842 11.6472 30.3247 12.0421 30.3076C12.4775 30.2886 12.7928 29.7626 12.8547 29.3853C12.8664 29.3135 12.9579 29.0726 12.9192 29.0048C12.8047 28.8045 12.3236 29.3742 12.2646 29.4595C12.2362 29.5004 12.2164 29.6527 12.2291 29.6046C12.3099 29.2975 12.4374 29.0049 12.5096 28.6952C12.6009 28.3041 12.6908 27.9464 12.8934 27.5924C13.1049 27.2229 13.3965 26.9004 13.5222 26.4864C13.6386 26.1027 13.6552 25.7048 13.7963 25.3287C14.3572 23.8329 14.4282 22.2089 15.0442 20.7304C15.1629 20.4455 15.2359 20.1263 15.3344 19.8307C15.504 19.3221 15.3378 19.7231 15.2731 20.0113C15.1057 20.7572 14.7687 21.4705 14.6734 22.2331C14.6128 22.7178 14.4107 23.0636 14.2735 23.5165C14.1693 23.8603 14.4312 22.8147 14.5379 22.4717C14.7107 21.9162 14.9583 21.3876 15.1377 20.8336C15.1557 20.778 15.3089 20.0577 15.2538 20.4144C15.1691 20.9626 14.9812 21.489 14.9088 22.0396C14.9021 22.0902 14.8061 22.9014 14.8507 22.4846C14.9386 21.664 15.2861 20.7775 15.5988 20.0113C15.7909 19.5408 15.9976 19.0702 16.2309 18.6183C16.6535 17.7994 16.9175 16.9534 17.2208 16.0869C17.4286 15.4934 16.9061 17.3161 16.6146 17.8734C16.5214 18.0516 16.3826 18.4053 16.2405 18.5473C16.0591 18.7288 16.2943 18.0328 16.376 17.7895C16.5933 17.142 16.8975 16.5503 17.195 15.9386C17.345 15.6304 17.4208 15.2859 17.6013 14.9905C17.7298 14.7804 17.9187 14.6215 18.0367 14.4004C18.1942 14.105 18.3538 13.8304 18.5526 13.562C18.9547 13.0192 19.2961 12.3442 19.8199 11.9078C19.9869 11.7686 20.1049 11.6326 20.2971 11.5337C20.4296 11.4656 20.5628 11.2261 20.7034 11.2113C20.8271 11.1982 20.9557 11.1567 21.0775 11.1532C21.149 11.1512 21.268 11.1751 21.329 11.1242C21.4924 10.988 20.917 11.2566 20.7453 11.3822C20.1387 11.826 19.5256 12.3702 19.2781 13.0816C19.0726 13.6726 19.6809 13.3387 20.0005 13.217C20.4175 13.0581 20.6697 12.815 21.0323 12.5785C21.294 12.4079 21.6044 12.3044 21.8675 12.14C21.8912 12.1252 22.2595 12.0494 22.1642 11.9981C21.7921 11.7977 21.143 12.0256 20.7808 12.14C20.4783 12.2355 20.1665 12.2994 19.865 12.3979C19.7733 12.4279 19.4141 12.5463 19.4265 12.5463C20.4196 12.5463 21.3947 12.2468 22.3415 11.9529C22.8667 11.7899 23.6747 11.949 24.0635 11.5047C24.3917 11.1296 22.984 11.2113 22.8446 11.2113C22.4781 11.2113 22.1115 11.2113 21.745 11.2113C21.4268 11.2113 21.1087 11.2113 20.7905 11.2113C20.7062 11.2113 20.6415 11.2336 20.5615 11.2564C20.5376 11.2633 21.1029 11.2693 21.2194 11.2693C22.1127 11.2693 23.0137 11.1886 23.8958 11.2113C24.1596 11.218 24.4156 11.2693 24.6826 11.2693C24.788 11.2693 24.8933 11.2693 24.9986 11.2693C25.2584 11.2693 24.4804 11.2324 24.2215 11.2113C23.8769 11.1831 23.5571 11.1443 23.2251 11.0694C23.1078 11.0429 22.3498 10.9494 22.8188 10.8372C23.7069 10.6248 24.5437 10.7469 25.4307 10.7469C26.3287 10.7469 27.2242 10.805 28.1201 10.805C28.2469 10.805 28.3738 10.805 28.5006 10.805C28.6529 10.805 28.199 10.8484 28.0491 10.8759C27.4694 10.9825 26.8803 11.1873 26.2885 11.208C25.7971 11.2253 25.3032 11.2113 24.8116 11.2113C24.6649 11.2113 24.2514 11.1383 24.1086 11.2403C24.0621 11.2735 24.3758 11.2691 24.386 11.2693C24.8732 11.2794 25.3528 11.363 25.837 11.408C27.1804 11.5326 28.5466 11.3854 29.8936 11.3854C30.5991 11.3854 31.3621 11.4682 32.0541 11.3145C32.1241 11.2989 32.62 11.2113 32.2541 11.2113C31.549 11.2113 30.8438 11.2113 30.1387 11.2113C29.5282 11.2113 27.6966 11.2113 28.3071 11.2113C29.3347 11.2113 30.3623 11.2113 31.3899 11.2113C32.0284 11.2113 32.6637 11.2693 33.3021 11.2693C33.4152 11.2693 33.5162 11.2693 33.3246 11.2693C32.842 11.2693 32.3594 11.2693 31.8768 11.2693C31.208 11.2693 30.5484 11.2474 29.8807 11.2113C29.8681 11.2106 29.2176 11.1594 29.4293 11.1532C29.9203 11.139 30.3967 11.0764 30.8804 10.992C31.1701 10.9414 32.022 10.8072 31.7317 10.7598C31.3307 10.6944 30.885 10.7469 30.4805 10.7469C29.9694 10.7469 29.4563 10.7341 28.9456 10.7598C28.7845 10.7679 27.7233 10.7587 28.4039 10.8179C29.5025 10.9134 30.5666 11.0952 31.6736 11.0952C32.9886 11.0952 34.2721 10.921 35.5851 10.921C36.3074 10.921 37.0258 10.9791 37.7424 10.9791C37.808 10.9791 38.2401 10.9244 38.2777 10.992C38.304 11.0394 36.6286 11.0944 36.5106 11.0952C36.4887 11.0953 35.9803 11.1409 36.0946 11.15C36.5688 11.1879 37.0611 11.1549 37.536 11.1532C38.4921 11.1498 39.4308 11.0371 40.3866 11.0371C41.1467 11.0371 41.9023 10.9791 42.6632 10.9791C43.1705 10.9791 43.658 10.863 44.1594 10.863C45.1031 10.863 46.0468 10.8268 46.9842 10.805C47.8195 10.7855 48.6575 10.805 49.493 10.805C49.8235 10.805 50.128 10.8082 50.4475 10.7501C50.6154 10.7196 50.7119 10.6392 50.7119 10.8598C50.7119 11.3317 49.5799 11.3101 49.235 11.3274C48.6068 11.3588 47.9686 11.3274 47.3389 11.3274C47.0068 11.3274 46.6746 11.3274 46.3425 11.3274C45.9557 11.3274 45.8891 11.8577 45.8362 12.14" stroke="#151515" stroke-linecap="round"/>
</g>
<defs>
<clipPath id="clip0_227_671">
<rect width="100" height="71.4193" fill="white"/>
</clipPath>
</defs>
</svg>
