<?xml version="1.0" encoding="iso-8859-1"?>
<!-- Generator: Adobe Illustrator 16.0.0, SVG Export Plug-In . SVG Version: 6.00 Build 0)  -->
<!DOCTYPE svg PUBLIC "-//W3C//DTD SVG 1.1//EN" "http://www.w3.org/Graphics/SVG/1.1/DTD/svg11.dtd">
<svg version="1.1" id="Capa_1" xmlns="http://www.w3.org/2000/svg" xmlns:xlink="http://www.w3.org/1999/xlink" x="0px" y="0px"
	 width="485.227px" height="485.227px" viewBox="0 0 485.227 485.227" style="enable-background:new 0 0 485.227 485.227;"
	 xml:space="preserve">
<g>
	<path d="M438.3,443.723l-32.161,32.165c-5.745,5.713-22.561,9.325-23.069,9.325c-101.816,0.858-199.839-39.124-271.88-111.175
		C38.943,301.806-1.082,203.396,0.031,101.285c0-0.061,3.687-16.407,9.418-22.094L41.61,46.998
		c11.803-11.784,34.399-17.116,50.227-11.845l6.781,2.28c15.831,5.273,32.371,22.745,36.753,38.825l16.202,59.44
		c4.396,16.108-1.515,39.031-13.299,50.82l-21.501,21.499c21.085,78.154,82.376,139.424,160.484,160.543l21.501-21.497
		c11.789-11.789,34.77-17.684,50.876-13.296l59.439,16.228c16.051,4.354,33.524,20.871,38.826,36.72l2.254,6.781
		C455.419,409.336,450.089,431.938,438.3,443.723z M485.218,64.327L420.887,0L316.583,104.307l-43.65-43.656V212.28h151.629
		l-43.651-43.651L485.218,64.327z"/>
</g>
</svg>
