<svg width="179" height="136" viewBox="0 0 179 136" fill="none" xmlns="http://www.w3.org/2000/svg">
<path d="M20.22 111L20.52 94.8H22.74L25.6 107.94L28.48 94.8H30.68L30.98 111H29.16L28.98 99.24L26.24 111H24.96L22.24 99.24L22.06 111H20.22ZM37.6031 111.18C36.5098 111.18 35.6365 110.967 34.9831 110.54C34.3298 110.113 33.8631 109.507 33.5831 108.72C33.3031 107.92 33.1631 106.987 33.1631 105.92V99.78C33.1631 98.7133 33.3031 97.8 33.5831 97.04C33.8765 96.2667 34.3431 95.68 34.9831 95.28C35.6365 94.8667 36.5098 94.66 37.6031 94.66C38.6965 94.66 39.5631 94.8667 40.2031 95.28C40.8431 95.6933 41.3031 96.28 41.5831 97.04C41.8765 97.8 42.0231 98.7133 42.0231 99.78V105.94C42.0231 106.993 41.8765 107.913 41.5831 108.7C41.3031 109.487 40.8431 110.1 40.2031 110.54C39.5631 110.967 38.6965 111.18 37.6031 111.18ZM37.6031 109.4C38.2031 109.4 38.6565 109.28 38.9631 109.04C39.2698 108.787 39.4765 108.44 39.5831 108C39.6898 107.547 39.7431 107.02 39.7431 106.42V99.32C39.7431 98.72 39.6898 98.2067 39.5831 97.78C39.4765 97.34 39.2698 97.0067 38.9631 96.78C38.6565 96.54 38.2031 96.42 37.6031 96.42C37.0031 96.42 36.5431 96.54 36.2231 96.78C35.9165 97.0067 35.7098 97.34 35.6031 97.78C35.4965 98.2067 35.4431 98.72 35.4431 99.32V106.42C35.4431 107.02 35.4965 107.547 35.6031 108C35.7098 108.44 35.9165 108.787 36.2231 109.04C36.5431 109.28 37.0031 109.4 37.6031 109.4ZM48.3044 111.18C47.1577 111.18 46.2644 110.94 45.6244 110.46C44.9977 109.98 44.5577 109.333 44.3044 108.52C44.0644 107.707 43.9444 106.8 43.9444 105.8V100.08C43.9444 98.9867 44.0644 98.0333 44.3044 97.22C44.5577 96.4067 44.9977 95.78 45.6244 95.34C46.2644 94.8867 47.1577 94.66 48.3044 94.66C49.3177 94.66 50.1177 94.8467 50.7044 95.22C51.3044 95.5933 51.731 96.1267 51.9844 96.82C52.251 97.5133 52.3844 98.3467 52.3844 99.32V100.6H50.2444V99.46C50.2444 98.86 50.211 98.3333 50.1444 97.88C50.091 97.4133 49.931 97.0533 49.6644 96.8C49.3977 96.5467 48.951 96.42 48.3244 96.42C47.6844 96.42 47.2177 96.56 46.9244 96.84C46.631 97.1067 46.4377 97.4933 46.3444 98C46.2644 98.4933 46.2244 99.0733 46.2244 99.74V106.16C46.2244 106.973 46.291 107.62 46.4244 108.1C46.5577 108.567 46.7777 108.9 47.0844 109.1C47.391 109.3 47.8044 109.4 48.3244 109.4C48.9377 109.4 49.3777 109.267 49.6444 109C49.911 108.72 50.0777 108.34 50.1444 107.86C50.211 107.38 50.2444 106.82 50.2444 106.18V104.98H52.3844V106.18C52.3844 107.167 52.2644 108.04 52.0244 108.8C51.7844 109.547 51.371 110.133 50.7844 110.56C50.1977 110.973 49.371 111.18 48.3044 111.18ZM54.5373 111V94.8H56.7973V102H57.6373L60.5373 94.8H62.7973L59.5973 102.5L63.1973 111H60.9373L57.6573 103.1H56.7973V111H54.5373ZM64.6936 111V94.8H68.4136C69.1469 94.8 69.7803 94.88 70.3136 95.04C70.8603 95.2 71.3136 95.4467 71.6736 95.78C72.0336 96.1133 72.3003 96.54 72.4736 97.06C72.6469 97.5667 72.7336 98.1667 72.7336 98.86C72.7336 99.5267 72.6469 100.107 72.4736 100.6C72.3136 101.08 72.0603 101.46 71.7136 101.74C71.3803 102.02 70.9469 102.2 70.4136 102.28C71.0669 102.427 71.5936 102.68 71.9936 103.04C72.3936 103.387 72.6869 103.84 72.8736 104.4C73.0736 104.947 73.1736 105.607 73.1736 106.38C73.1736 107.073 73.0936 107.707 72.9336 108.28C72.7736 108.853 72.5203 109.34 72.1736 109.74C71.8403 110.14 71.4069 110.453 70.8736 110.68C70.3536 110.893 69.7336 111 69.0136 111H64.6936ZM66.9536 109.38H68.4736C69.4869 109.38 70.1603 109.147 70.4936 108.68C70.8403 108.2 71.0136 107.433 71.0136 106.38C71.0136 105.7 70.9203 105.133 70.7336 104.68C70.5603 104.213 70.2736 103.867 69.8736 103.64C69.4869 103.4 68.9603 103.28 68.2936 103.28H66.9536V109.38ZM66.9536 101.56H68.2936C68.9336 101.56 69.4336 101.473 69.7936 101.3C70.1536 101.113 70.4069 100.82 70.5536 100.42C70.7003 100.02 70.7736 99.5 70.7736 98.86C70.7736 98.1133 70.6603 97.5733 70.4336 97.24C70.2069 96.9067 69.8536 96.7 69.3736 96.62C68.8936 96.5267 68.2669 96.48 67.4936 96.48H66.9536V101.56ZM74.3019 111L77.7419 94.8H79.9219L83.3819 111H81.2419L80.5019 106.92H77.2019L76.4219 111H74.3019ZM77.5019 105.3H80.2019L78.8419 98L77.5019 105.3ZM91.6359 106.76V103.5H88.8359V101.88H91.6359V98.62H93.2359V101.88H96.1359V103.5H93.2359V106.76H91.6359ZM100.057 111V97.6C100.043 97.6133 99.8901 97.6533 99.5967 97.72C99.3167 97.7867 98.9967 97.8533 98.6367 97.92C98.2767 97.9867 97.9567 98.0467 97.6767 98.1C97.3967 98.1533 97.2501 98.18 97.2367 98.18V96.56C97.4634 96.5067 97.7234 96.4333 98.0167 96.34C98.3234 96.2467 98.6301 96.1333 98.9367 96C99.2567 95.8667 99.5567 95.7 99.8367 95.5C100.13 95.3 100.377 95.0667 100.577 94.8H102.197V111H100.057ZM109.426 111.16C108.453 111.16 107.68 110.973 107.106 110.6C106.533 110.227 106.12 109.687 105.866 108.98C105.626 108.273 105.506 107.433 105.506 106.46H107.646C107.646 106.94 107.686 107.413 107.766 107.88C107.846 108.333 108.013 108.713 108.266 109.02C108.533 109.313 108.933 109.46 109.466 109.46C110.053 109.46 110.473 109.293 110.726 108.96C110.98 108.613 111.14 108.153 111.206 107.58C111.273 106.993 111.306 106.333 111.306 105.6C111.306 104.867 111.266 104.247 111.186 103.74C111.106 103.22 110.94 102.827 110.686 102.56C110.433 102.28 110.033 102.14 109.486 102.14C109.046 102.14 108.673 102.28 108.366 102.56C108.06 102.827 107.833 103.133 107.686 103.48H105.866V94.8H112.846V96.94H107.806L107.666 101.42C107.933 101.14 108.26 100.92 108.646 100.76C109.046 100.6 109.5 100.52 110.006 100.52C110.886 100.52 111.573 100.727 112.066 101.14C112.573 101.553 112.926 102.12 113.126 102.84C113.34 103.56 113.446 104.387 113.446 105.32C113.446 106.147 113.386 106.92 113.266 107.64C113.146 108.347 112.933 108.967 112.626 109.5C112.333 110.02 111.926 110.427 111.406 110.72C110.886 111.013 110.226 111.16 109.426 111.16ZM119.258 111.18C118.338 111.18 117.578 110.973 116.978 110.56C116.391 110.147 115.951 109.58 115.658 108.86C115.378 108.14 115.238 107.32 115.238 106.4V99.42C115.238 98.4733 115.378 97.6467 115.658 96.94C115.938 96.22 116.371 95.66 116.958 95.26C117.558 94.86 118.325 94.66 119.258 94.66C120.191 94.66 120.951 94.86 121.538 95.26C122.125 95.66 122.558 96.22 122.838 96.94C123.118 97.6467 123.258 98.4733 123.258 99.42V106.4C123.258 107.333 123.111 108.16 122.818 108.88C122.538 109.6 122.105 110.167 121.518 110.58C120.931 110.98 120.178 111.18 119.258 111.18ZM119.258 109.42C119.765 109.42 120.145 109.273 120.398 108.98C120.665 108.687 120.845 108.313 120.938 107.86C121.045 107.393 121.098 106.913 121.098 106.42V99.4C121.098 98.88 121.051 98.3933 120.958 97.94C120.865 97.4733 120.685 97.1 120.418 96.82C120.165 96.54 119.778 96.4 119.258 96.4C118.738 96.4 118.345 96.54 118.078 96.82C117.811 97.1 117.631 97.4733 117.538 97.94C117.445 98.3933 117.398 98.88 117.398 99.4V106.42C117.398 106.913 117.445 107.393 117.538 107.86C117.645 108.313 117.831 108.687 118.098 108.98C118.378 109.273 118.765 109.42 119.258 109.42ZM129.59 111.18C128.67 111.18 127.91 110.973 127.31 110.56C126.723 110.147 126.283 109.58 125.99 108.86C125.71 108.14 125.57 107.32 125.57 106.4V99.42C125.57 98.4733 125.71 97.6467 125.99 96.94C126.27 96.22 126.703 95.66 127.29 95.26C127.89 94.86 128.657 94.66 129.59 94.66C130.523 94.66 131.283 94.86 131.87 95.26C132.457 95.66 132.89 96.22 133.17 96.94C133.45 97.6467 133.59 98.4733 133.59 99.42V106.4C133.59 107.333 133.443 108.16 133.15 108.88C132.87 109.6 132.437 110.167 131.85 110.58C131.263 110.98 130.51 111.18 129.59 111.18ZM129.59 109.42C130.097 109.42 130.477 109.273 130.73 108.98C130.997 108.687 131.177 108.313 131.27 107.86C131.377 107.393 131.43 106.913 131.43 106.42V99.4C131.43 98.88 131.383 98.3933 131.29 97.94C131.197 97.4733 131.017 97.1 130.75 96.82C130.497 96.54 130.11 96.4 129.59 96.4C129.07 96.4 128.677 96.54 128.41 96.82C128.143 97.1 127.963 97.4733 127.87 97.94C127.777 98.3933 127.73 98.88 127.73 99.4V106.42C127.73 106.913 127.777 107.393 127.87 107.86C127.977 108.313 128.163 108.687 128.43 108.98C128.71 109.273 129.097 109.42 129.59 109.42ZM136.002 111V94.8H138.262V102H139.102L142.002 94.8H144.262L141.062 102.5L144.662 111H142.402L139.122 103.1H138.262V111H136.002ZM146.118 111L146.418 94.8H148.638L151.498 107.94L154.378 94.8H156.578L156.878 111H155.058L154.878 99.24L152.138 111H150.858L148.138 99.24L147.958 111H146.118Z" fill="#FEEB7B"/>
<path d="M24.4 80.18C23.3067 80.18 22.4333 79.9667 21.78 79.54C21.1267 79.1133 20.66 78.5067 20.38 77.72C20.1 76.92 19.96 75.9867 19.96 74.92V68.78C19.96 67.7133 20.1 66.8 20.38 66.04C20.6733 65.2667 21.14 64.68 21.78 64.28C22.4333 63.8667 23.3067 63.66 24.4 63.66C25.4933 63.66 26.36 63.8667 27 64.28C27.64 64.6933 28.1 65.28 28.38 66.04C28.6733 66.8 28.82 67.7133 28.82 68.78V74.94C28.82 75.9933 28.6733 76.9133 28.38 77.7C28.1 78.4867 27.64 79.1 27 79.54C26.36 79.9667 25.4933 80.18 24.4 80.18ZM24.4 78.4C25 78.4 25.4533 78.28 25.76 78.04C26.0667 77.7867 26.2733 77.44 26.38 77C26.4867 76.5467 26.54 76.02 26.54 75.42V68.32C26.54 67.72 26.4867 67.2067 26.38 66.78C26.2733 66.34 26.0667 66.0067 25.76 65.78C25.4533 65.54 25 65.42 24.4 65.42C23.8 65.42 23.34 65.54 23.02 65.78C22.7133 66.0067 22.5067 66.34 22.4 66.78C22.2933 67.2067 22.24 67.72 22.24 68.32V75.42C22.24 76.02 22.2933 76.5467 22.4 77C22.5067 77.44 22.7133 77.7867 23.02 78.04C23.34 78.28 23.8 78.4 24.4 78.4ZM31.0413 80V63.8H38.0013V65.44H33.3013V70.54H33.8013C34.9746 70.54 35.9413 70.68 36.7013 70.96C37.4746 71.2267 38.0479 71.7 38.4213 72.38C38.8079 73.06 39.0013 74.02 39.0013 75.26C39.0013 76.1 38.9013 76.82 38.7013 77.42C38.5013 78.0067 38.1879 78.4933 37.7613 78.88C37.3479 79.2667 36.8213 79.5533 36.1813 79.74C35.5546 79.9133 34.8013 80 33.9213 80H31.0413ZM33.3013 78.38H33.9413C34.6079 78.38 35.1546 78.3067 35.5813 78.16C36.0213 78 36.3413 77.6933 36.5413 77.24C36.7546 76.7867 36.8613 76.12 36.8613 75.24C36.8613 74.1333 36.6479 73.3467 36.2213 72.88C35.8079 72.4133 35.0279 72.18 33.8813 72.18H33.3013V78.38ZM39.7041 80V78.32C39.9974 78.3333 40.2641 78.3133 40.5041 78.26C40.7574 78.2067 40.9774 78.08 41.1641 77.88C41.3641 77.68 41.5374 77.3667 41.6841 76.94C41.8307 76.5133 41.9574 75.9333 42.0641 75.2C42.1707 74.4667 42.2641 73.54 42.3441 72.42L42.8841 63.8H50.0041V80H47.7441V65.48H44.8241L44.4441 72.42C44.3774 73.46 44.2907 74.4 44.1841 75.24C44.0774 76.0667 43.9174 76.7933 43.7041 77.42C43.5041 78.0333 43.2307 78.5467 42.8841 78.96C42.5507 79.36 42.1241 79.6467 41.6041 79.82C41.0841 79.9933 40.4507 80.0533 39.7041 80ZM51.6652 80L55.1052 63.8H57.2852L60.7452 80H58.6052L57.8652 75.92H54.5652L53.7852 80H51.6652ZM54.8652 74.3H57.5652L56.2052 67L54.8652 74.3ZM66.4489 80.18C65.3022 80.18 64.4089 79.94 63.7689 79.46C63.1422 78.98 62.7022 78.3333 62.4489 77.52C62.2089 76.7067 62.0889 75.8 62.0889 74.8V69.08C62.0889 67.9867 62.2089 67.0333 62.4489 66.22C62.7022 65.4067 63.1422 64.78 63.7689 64.34C64.4089 63.8867 65.3022 63.66 66.4489 63.66C67.4622 63.66 68.2622 63.8467 68.8489 64.22C69.4489 64.5933 69.8756 65.1267 70.1289 65.82C70.3956 66.5133 70.5289 67.3467 70.5289 68.32V69.6H68.3889V68.46C68.3889 67.86 68.3556 67.3333 68.2889 66.88C68.2356 66.4133 68.0756 66.0533 67.8089 65.8C67.5422 65.5467 67.0956 65.42 66.4689 65.42C65.8289 65.42 65.3622 65.56 65.0689 65.84C64.7756 66.1067 64.5822 66.4933 64.4889 67C64.4089 67.4933 64.3689 68.0733 64.3689 68.74V75.16C64.3689 75.9733 64.4356 76.62 64.5689 77.1C64.7022 77.5667 64.9222 77.9 65.2289 78.1C65.5356 78.3 65.9489 78.4 66.4689 78.4C67.0822 78.4 67.5222 78.2667 67.7889 78C68.0556 77.72 68.2222 77.34 68.2889 76.86C68.3556 76.38 68.3889 75.82 68.3889 75.18V73.98H70.5289V75.18C70.5289 76.1667 70.4089 77.04 70.1689 77.8C69.9289 78.5467 69.5156 79.1333 68.9289 79.56C68.3422 79.9733 67.5156 80.18 66.4489 80.18ZM74.4619 80V65.48H71.7219V63.8H79.3819V65.48H76.7219V80H74.4619ZM80.9436 80V63.8H83.2036V70.54H83.8436C85.0169 70.54 85.9836 70.68 86.7436 70.96C87.5036 71.2267 88.0703 71.7 88.4436 72.38C88.8303 73.06 89.0236 74.02 89.0236 75.26C89.0236 76.1 88.9236 76.82 88.7236 77.42C88.5236 78.0067 88.2103 78.4933 87.7836 78.88C87.3703 79.2667 86.8436 79.5533 86.2036 79.74C85.5769 79.9133 84.8236 80 83.9436 80H80.9436ZM83.2036 78.38H83.9436C84.6236 78.38 85.1769 78.3067 85.6036 78.16C86.0436 78 86.3703 77.6933 86.5836 77.24C86.7969 76.7867 86.9036 76.12 86.9036 75.24C86.9036 74.1333 86.6903 73.3467 86.2636 72.88C85.8369 72.4133 85.0503 72.18 83.9036 72.18H83.2036V78.38ZM95.3967 80V63.8H99.1167C99.8501 63.8 100.483 63.88 101.017 64.04C101.563 64.2 102.017 64.4467 102.377 64.78C102.737 65.1133 103.003 65.54 103.177 66.06C103.35 66.5667 103.437 67.1667 103.437 67.86C103.437 68.5267 103.35 69.1067 103.177 69.6C103.017 70.08 102.763 70.46 102.417 70.74C102.083 71.02 101.65 71.2 101.117 71.28C101.77 71.4267 102.297 71.68 102.697 72.04C103.097 72.3867 103.39 72.84 103.577 73.4C103.777 73.9467 103.877 74.6067 103.877 75.38C103.877 76.0733 103.797 76.7067 103.637 77.28C103.477 77.8533 103.223 78.34 102.877 78.74C102.543 79.14 102.11 79.4533 101.577 79.68C101.057 79.8933 100.437 80 99.7167 80H95.3967ZM97.6567 78.38H99.1767C100.19 78.38 100.863 78.1467 101.197 77.68C101.543 77.2 101.717 76.4333 101.717 75.38C101.717 74.7 101.623 74.1333 101.437 73.68C101.263 73.2133 100.977 72.8667 100.577 72.64C100.19 72.4 99.6634 72.28 98.9967 72.28H97.6567V78.38ZM97.6567 70.56H98.9967C99.6367 70.56 100.137 70.4733 100.497 70.3C100.857 70.1133 101.11 69.82 101.257 69.42C101.403 69.02 101.477 68.5 101.477 67.86C101.477 67.1133 101.363 66.5733 101.137 66.24C100.91 65.9067 100.557 65.7 100.077 65.62C99.5967 65.5267 98.9701 65.48 98.1967 65.48H97.6567V70.56ZM105.885 80V63.8H108.145V70.54H108.785C109.958 70.54 110.925 70.68 111.685 70.96C112.445 71.2267 113.012 71.7 113.385 72.38C113.772 73.06 113.965 74.02 113.965 75.26C113.965 76.1 113.865 76.82 113.665 77.42C113.465 78.0067 113.152 78.4933 112.725 78.88C112.312 79.2667 111.785 79.5533 111.145 79.74C110.518 79.9133 109.765 80 108.885 80H105.885ZM108.145 78.38H108.885C109.565 78.38 110.118 78.3067 110.545 78.16C110.985 78 111.312 77.6933 111.525 77.24C111.738 76.7867 111.845 76.12 111.845 75.24C111.845 74.1333 111.632 73.3467 111.205 72.88C110.778 72.4133 109.992 72.18 108.845 72.18H108.145V78.38ZM115.645 80V63.8H117.905V80H115.645ZM120.436 80V63.8H122.696V71H123.536L126.436 63.8H128.696L125.496 71.5L129.096 80H126.836L123.556 72.1H122.696V80H120.436ZM130.392 82.46V80.72C131.085 80.7867 131.619 80.7867 131.992 80.72C132.379 80.6533 132.645 80.5133 132.792 80.3C132.952 80.1 133.032 79.8267 133.032 79.48C133.032 79.12 132.992 78.6933 132.912 78.2L129.712 63.8H131.852L133.212 70.7L134.032 75.84L134.752 70.74L135.972 63.8H138.132L135.232 78.24C135.099 78.8933 134.985 79.4667 134.892 79.96C134.812 80.4533 134.692 80.8733 134.532 81.22C134.385 81.5667 134.159 81.84 133.852 82.04C133.545 82.24 133.112 82.3733 132.552 82.44C132.005 82.5067 131.285 82.5133 130.392 82.46ZM139.635 80V63.8H148.555V80H146.295V65.42H141.895V80H139.635ZM150.2 80L153.64 63.8H155.82L159.28 80H157.14L156.4 75.92H153.1L152.32 80H150.2ZM153.4 74.3H156.1L154.74 67L153.4 74.3Z" fill="#FEEB7B"/>
<g filter="url(#filter0_d_402_620)">
<path d="M4.5 37C4.5 35.6193 5.61929 34.5 7 34.5H172C173.381 34.5 174.5 35.6193 174.5 37V125C174.5 126.381 173.381 127.5 172 127.5H7C5.61929 127.5 4.5 126.381 4.5 125V37Z" stroke="#FEEB7B" shape-rendering="crispEdges"/>
</g>
<path d="M100.608 5.26609C94.7451 -0.422031 85.2389 -0.422031 79.397 5.26609C74.7277 9.79628 73.6599 16.7642 76.7588 22.4117L89.992 46.4847L103.225 22.4117C106.345 16.7642 105.277 9.81659 100.608 5.26609ZM95.7292 21.3147C92.5465 24.4026 87.4165 24.4026 84.2339 21.3147C81.0512 18.2269 81.0512 13.2498 84.2339 10.1619C87.4165 7.0741 92.5465 7.0741 95.7292 10.1619C98.9119 13.2498 98.9119 18.2472 95.7292 21.3147Z" fill="white" stroke="#FEEB7B" stroke-width="2" stroke-miterlimit="10" stroke-linecap="round" stroke-linejoin="round"/>
<defs>
<filter id="filter0_d_402_620" x="0" y="34" width="179" height="102" filterUnits="userSpaceOnUse" color-interpolation-filters="sRGB">
<feFlood flood-opacity="0" result="BackgroundImageFix"/>
<feColorMatrix in="SourceAlpha" type="matrix" values="0 0 0 0 0 0 0 0 0 0 0 0 0 0 0 0 0 0 127 0" result="hardAlpha"/>
<feOffset dy="4"/>
<feGaussianBlur stdDeviation="2"/>
<feComposite in2="hardAlpha" operator="out"/>
<feColorMatrix type="matrix" values="0 0 0 0 0 0 0 0 0 0 0 0 0 0 0 0 0 0 0.25 0"/>
<feBlend mode="normal" in2="BackgroundImageFix" result="effect1_dropShadow_402_620"/>
<feBlend mode="normal" in="SourceGraphic" in2="effect1_dropShadow_402_620" result="shape"/>
</filter>
</defs>
</svg>
