<svg width="98" height="65" viewBox="0 0 98 65" fill="none" xmlns="http://www.w3.org/2000/svg">
<path id="car" d="M91.9295 20.4797C91.8635 20.4037 91.8075 20.3297 91.7295 20.2557L88.2952 16.9414C91.1434 16.2953 94.2097 13.9091 94.2097 11.4609C94.2097 8.6087 90.2514 7.59662 86.8731 7.59662C83.3408 7.59662 82.9308 10.0168 82.8888 11.727L74.028 3.18426C72.2279 1.40211 68.8136 0 66.2614 0H49.004H49H31.7386C29.1884 0 25.7761 1.40211 23.974 3.18426L15.1152 11.727C15.0692 10.0168 14.6592 7.59662 11.1309 7.59662C7.74863 7.59662 3.79231 8.6087 3.79231 11.4609C3.79231 13.9091 6.86056 16.2953 9.70879 16.9414L6.27451 20.2557C6.19651 20.3297 6.1425 20.4037 6.0745 20.4797C2.4002 23.6199 0 29.4444 0 33.6707V46.2298C0 49.278 1.2021 52.0442 3.14426 54.1064V58.9768C3.14426 61.825 5.52845 64.1472 8.46069 64.1472H14.8892C17.8215 64.1472 20.2036 61.829 20.2036 58.9768V57.7307H49H49.004H77.7983V58.9768C77.7983 61.829 80.1785 64.1472 83.1148 64.1472H89.5413C92.4755 64.1472 94.8557 61.825 94.8557 58.9768V54.1064C96.7999 52.0442 98 49.278 98 46.2298V33.6707C98.004 29.4444 95.6038 23.6199 91.9295 20.4797ZM27.2282 6.98057C28.4743 5.94248 30.6525 5.15442 31.7386 5.15442H49H49.004H66.2654C67.3515 5.15442 69.5297 5.94248 70.7758 6.98057L82.3947 18.2415H49.004H49H15.6113L27.2282 6.98057ZM3.98633 31.7706C3.98633 28.6783 6.40652 26.1681 9.39477 26.1681C12.381 26.1681 22.1398 31.8966 22.1398 34.9889C22.1398 38.0811 12.381 37.365 9.39477 37.365C6.40652 37.365 3.98633 34.8648 3.98633 31.7706ZM20.2056 52.2243H19.1756H18.1455L12.035 52.2343C10.3388 51.7062 9.14275 51.0902 8.29668 50.4281C7.86864 50.0941 7.54061 49.7461 7.28459 49.4C7.02657 49.05 6.83856 48.706 6.71655 48.3619C5.95649 46.2138 7.52661 44.2396 7.52661 44.2396H17.9555L24.908 52.2203L20.2056 52.2243ZM63.9972 52.2283H49.004H49H34.0068C30.8805 52.2283 28.3423 49.69 28.3423 46.5658H49H49.004H69.6617C69.6617 49.694 67.1235 52.2283 63.9972 52.2283ZM65.3133 42.7015H49.004H49H32.6907C29.2904 42.7015 26.5302 38.5091 26.5302 33.3387H49H49.004H71.4738C71.4738 38.5111 68.7136 42.7015 65.3133 42.7015ZM91.2894 48.3659C91.1654 48.71 90.9774 49.054 90.7194 49.402C90.4654 49.7481 90.1373 50.0961 89.7073 50.4301C88.8632 51.0922 87.6651 51.7122 85.969 52.2363L79.8585 52.2263H78.8284H77.7983H73.092L80.0485 44.2456H90.4754C90.4754 44.2456 92.0475 46.2138 91.2894 48.3659ZM88.6092 37.365C85.625 37.365 75.8662 38.0771 75.8662 34.9889C75.8662 31.9006 85.625 26.1681 88.6092 26.1681C91.5975 26.1681 94.0177 28.6783 94.0177 31.7706C94.0177 34.8608 91.5975 37.365 88.6092 37.365Z" fill="#9E9E9E"/>
</svg>
