<svg width="100" height="94" viewBox="0 0 100 94" fill="none" xmlns="http://www.w3.org/2000/svg">
<path d="M45 35C42.5168 34.9976 40.0977 35.7882 38.0953 37.2567C36.0928 38.7252 34.6116 40.7948 33.8676 43.1639C33.1235 45.533 33.1554 48.0778 33.9587 50.4275C34.762 52.7771 36.2947 54.8089 38.3333 56.2267V68.3333C38.3333 68.6351 38.4152 68.9312 38.5702 69.19C38.7253 69.4489 38.9477 69.6608 39.2137 69.8031C39.4798 69.9455 39.7795 70.0129 40.0809 69.9983C40.3823 69.9837 40.674 69.8875 40.925 69.72L45 67L49.075 69.7167C49.3258 69.884 49.6172 69.9801 49.9183 69.9949C50.2194 70.0097 50.5189 69.9425 50.7848 69.8006C51.0508 69.6586 51.2732 69.4472 51.4285 69.1888C51.5838 68.9305 51.6661 68.6348 51.6667 68.3333V56.2267C53.7054 54.8089 55.238 52.7771 56.0413 50.4275C56.8446 48.0778 56.8765 45.533 56.1325 43.1639C55.3884 40.7948 53.9072 38.7252 51.9048 37.2567C49.9023 35.7882 47.4832 34.9976 45 35ZM41.7517 46.14L43.4183 41.14C43.558 40.7201 43.8588 40.3728 44.2545 40.1747C44.6502 39.9765 45.1084 39.9437 45.5283 40.0833C45.9483 40.223 46.2955 40.5238 46.4937 40.9195C46.6918 41.3152 46.7247 41.7734 46.585 42.1933L45.645 45H46.6667C46.9308 44.9999 47.1911 45.0626 47.4262 45.1829C47.6613 45.3032 47.8645 45.4776 48.0189 45.6918C48.1734 45.906 48.2747 46.1539 48.3146 46.4149C48.3545 46.676 48.3318 46.9428 48.2483 47.1933L46.5817 52.1933C46.442 52.6133 46.1412 52.9605 45.7455 53.1587C45.3498 53.3568 44.8916 53.3897 44.4717 53.25C44.0518 53.1103 43.7045 52.8096 43.5064 52.4138C43.3082 52.0181 43.2753 51.5599 43.415 51.14L44.355 48.3333H43.3333C43.0693 48.3334 42.8089 48.2707 42.5738 48.1504C42.3387 48.0301 42.1356 47.8557 41.9811 47.6415C41.8266 47.4273 41.7253 47.1795 41.6854 46.9184C41.6455 46.6574 41.6682 46.3906 41.7517 46.14ZM48.3333 65.22L45.925 63.6133C45.6511 63.4306 45.3293 63.3331 45 63.3331C44.6708 63.3331 44.3489 63.4306 44.075 63.6133L41.6667 65.22V57.8417C43.8406 58.4972 46.1595 58.4972 48.3333 57.8417V65.22Z" fill="#9E9E9E"/>
<path d="M100 61.6667H99.965C99.8869 59.7823 99.3497 57.9456 98.4002 56.3161C97.4507 54.6866 96.1175 53.3137 94.5167 52.3167L89.7433 49.3333C89.0387 48.8777 88.397 48.3314 87.835 47.7083L95.2367 46.65C95.6337 46.5931 95.9968 46.3949 96.2595 46.0918C96.5221 45.7887 96.6667 45.4011 96.6667 45V38.3333C96.6667 37.8913 96.4911 37.4674 96.1785 37.1548C95.866 36.8423 95.442 36.6667 95 36.6667H83.39L81.2133 29.6467C80.7644 27.8426 79.7243 26.2407 78.259 25.0965C76.7937 23.9522 74.9875 23.3315 73.1283 23.3333H63.3333V16.6667H71.6667C72.1087 16.6667 72.5326 16.4911 72.8452 16.1785C73.1577 15.866 73.3333 15.442 73.3333 15V6.66667C73.3333 4.89856 72.631 3.20286 71.3807 1.95262C70.1305 0.702379 68.4348 0 66.6667 0H11.6667C9.45734 0.00264643 7.33926 0.88147 5.77703 2.4437C4.2148 4.00593 3.33598 6.12401 3.33333 8.33333V73.3333H1.66667C1.22464 73.3333 0.800716 73.5089 0.488155 73.8215C0.175595 74.134 0 74.558 0 75V78.3333C0.00264643 80.5427 0.88147 82.6607 2.4437 84.223C4.00593 85.7852 6.12401 86.664 8.33333 86.6667H56.6667C58.4348 86.6667 60.1305 85.9643 61.3807 84.7141C62.631 83.4638 63.3333 81.7681 63.3333 80H73.3333V88.3333C73.3333 89.6594 73.8601 90.9312 74.7978 91.8689C75.7355 92.8065 77.0072 93.3333 78.3333 93.3333H88.3333C89.6594 93.3333 90.9312 92.8065 91.8689 91.8689C92.8065 90.9312 93.3333 89.6594 93.3333 88.3333V80H95C96.3261 80 97.5978 79.4732 98.5355 78.5355C99.4732 77.5979 100 76.3261 100 75V62.2083C100 62.0967 99.9817 61.9867 99.9783 61.875C99.98 61.805 100 61.7383 100 61.6667ZM60 6.66667V80C60 80.8841 59.6488 81.7319 59.0237 82.357C58.3986 82.9821 57.5507 83.3333 56.6667 83.3333C55.7826 83.3333 54.9348 82.9821 54.3096 82.357C53.6845 81.7319 53.3333 80.8841 53.3333 80V75C53.3333 74.558 53.1577 74.134 52.8452 73.8215C52.5326 73.5089 52.1087 73.3333 51.6667 73.3333H6.66667V8.33333C6.66667 7.00725 7.19345 5.73548 8.13113 4.7978C9.06881 3.86012 10.3406 3.33333 11.6667 3.33333H60.9267C60.3268 4.34224 60.0069 5.49291 60 6.66667ZM93.3333 40V43.555L85.9067 44.615C85.7434 44.2277 85.6037 43.8308 85.4883 43.4267L84.425 40H93.3333ZM63.3333 51.6667H74.1017L70.2367 60.365C69.8436 61.2488 69.2027 61.9996 68.3916 62.5265C67.5804 63.0533 66.6339 63.3336 65.6667 63.3333H63.3333V51.6667ZM63.3333 76.6667V73.3333H73.6983L74.5317 76.6667H63.3333ZM74.3017 48.3333H63.3333V26.6667H73.1283C74.2579 26.6712 75.353 27.0563 76.2369 27.7596C77.1208 28.463 77.7419 29.4436 78 30.5433L82.2767 44.3233C82.3875 44.7622 82.521 45.195 82.6767 45.62L78.1767 47.5367C76.9526 48.0631 75.6341 48.3341 74.3017 48.3333ZM90 88.3333C90 88.7754 89.8244 89.1993 89.5118 89.5118C89.1993 89.8244 88.7754 90 88.3333 90V88.3333C88.3333 87.8913 88.1577 87.4674 87.8452 87.1548C87.5326 86.8423 87.1087 86.6667 86.6667 86.6667C86.2246 86.6667 85.8007 86.8423 85.4882 87.1548C85.1756 87.4674 85 87.8913 85 88.3333V90H81.6667V88.3333C81.6667 87.8913 81.4911 87.4674 81.1785 87.1548C80.866 86.8423 80.442 86.6667 80 86.6667C79.558 86.6667 79.134 86.8423 78.8215 87.1548C78.5089 87.4674 78.3333 87.8913 78.3333 88.3333V90C77.8913 90 77.4674 89.8244 77.1548 89.5118C76.8423 89.1993 76.6667 88.7754 76.6667 88.3333V80H78.3333V81.6667C78.3333 82.1087 78.5089 82.5326 78.8215 82.8452C79.134 83.1577 79.558 83.3333 80 83.3333C80.442 83.3333 80.866 83.1577 81.1785 82.8452C81.4911 82.5326 81.6667 82.1087 81.6667 81.6667V80H85V81.6667C85 82.1087 85.1756 82.5326 85.4882 82.8452C85.8007 83.1577 86.2246 83.3333 86.6667 83.3333C87.1087 83.3333 87.5326 83.1577 87.8452 82.8452C88.1577 82.5326 88.3333 82.1087 88.3333 81.6667V80H90V88.3333ZM91.6667 66.6667H83.3333V65C83.3333 63.6739 83.8601 62.4022 84.7978 61.4645C85.7355 60.5268 87.0072 60 88.3333 60H96.3667C96.5305 60.6124 96.6238 61.2415 96.645 61.875C96.5914 63.1609 96.044 64.3766 95.1167 65.2691C94.1894 66.1616 92.9537 66.6622 91.6667 66.6667Z" fill="#9E9E9E"/>
<path d="M55 21.6665H33.3333C32.8913 21.6665 32.4674 21.8421 32.1548 22.1547C31.8422 22.4672 31.6667 22.8911 31.6667 23.3332C31.6667 23.7752 31.8422 24.1991 32.1548 24.5117C32.4674 24.8242 32.8913 24.9998 33.3333 24.9998H55C55.442 24.9998 55.8659 24.8242 56.1785 24.5117C56.4911 24.1991 56.6667 23.7752 56.6667 23.3332C56.6667 22.8911 56.4911 22.4672 56.1785 22.1547C55.8659 21.8421 55.442 21.6665 55 21.6665Z" fill="#9E9E9E"/>
<path d="M10 30.0002C10 30.4422 10.1756 30.8661 10.4882 31.1787C10.8007 31.4912 11.2246 31.6668 11.6667 31.6668H33.3333C33.7754 31.6668 34.1993 31.4912 34.5118 31.1787C34.8244 30.8661 35 30.4422 35 30.0002C35 29.5581 34.8244 29.1342 34.5118 28.8217C34.1993 28.5091 33.7754 28.3335 33.3333 28.3335H11.6667C11.2246 28.3335 10.8007 28.5091 10.4882 28.8217C10.1756 29.1342 10 29.5581 10 30.0002Z" fill="#9E9E9E"/>
<path d="M26.6667 24.9998C27.1087 24.9998 27.5326 24.8242 27.8452 24.5117C28.1578 24.1991 28.3333 23.7752 28.3333 23.3332C28.3333 22.8911 28.1578 22.4672 27.8452 22.1547C27.5326 21.8421 27.1087 21.6665 26.6667 21.6665H20C19.558 21.6665 19.1341 21.8421 18.8215 22.1547C18.5089 22.4672 18.3333 22.8911 18.3333 23.3332C18.3333 23.7752 18.5089 24.1991 18.8215 24.5117C19.1341 24.8242 19.558 24.9998 20 24.9998H26.6667Z" fill="#9E9E9E"/>
<path d="M55 28.3335H40C39.558 28.3335 39.134 28.5091 38.8215 28.8217C38.5089 29.1342 38.3333 29.5581 38.3333 30.0002C38.3333 30.4422 38.5089 30.8661 38.8215 31.1787C39.134 31.4912 39.558 31.6668 40 31.6668H55C55.442 31.6668 55.8659 31.4912 56.1785 31.1787C56.4911 30.8661 56.6667 30.4422 56.6667 30.0002C56.6667 29.5581 56.4911 29.1342 56.1785 28.8217C55.8659 28.5091 55.442 28.3335 55 28.3335Z" fill="#9E9E9E"/>
<path d="M31.6667 35H11.6667C11.2246 35 10.8007 35.1756 10.4882 35.4882C10.1756 35.8007 10 36.2246 10 36.6667C10 37.1087 10.1756 37.5326 10.4882 37.8452C10.8007 38.1577 11.2246 38.3333 11.6667 38.3333H31.6667C32.1087 38.3333 32.5326 38.1577 32.8452 37.8452C33.1577 37.5326 33.3333 37.1087 33.3333 36.6667C33.3333 36.2246 33.1577 35.8007 32.8452 35.4882C32.5326 35.1756 32.1087 35 31.6667 35Z" fill="#9E9E9E"/>
<path d="M26.6667 41.6665H11.6667C11.2246 41.6665 10.8007 41.8421 10.4882 42.1547C10.1756 42.4672 10 42.8911 10 43.3332C10 43.7752 10.1756 44.1991 10.4882 44.5117C10.8007 44.8242 11.2246 44.9998 11.6667 44.9998H26.6667C27.1087 44.9998 27.5326 44.8242 27.8452 44.5117C28.1577 44.1991 28.3333 43.7752 28.3333 43.3332C28.3333 42.8911 28.1577 42.4672 27.8452 42.1547C27.5326 41.8421 27.1087 41.6665 26.6667 41.6665Z" fill="#9E9E9E"/>
<path d="M28.3333 61.6665H11.6667C11.2246 61.6665 10.8007 61.8421 10.4882 62.1547C10.1756 62.4672 10 62.8911 10 63.3332C10 63.7752 10.1756 64.1991 10.4882 64.5117C10.8007 64.8242 11.2246 64.9998 11.6667 64.9998H28.3333C28.7754 64.9998 29.1993 64.8242 29.5118 64.5117C29.8244 64.1991 30 63.7752 30 63.3332C30 62.8911 29.8244 62.4672 29.5118 62.1547C29.1993 61.8421 28.7754 61.6665 28.3333 61.6665Z" fill="#9E9E9E"/>
<path d="M26.7117 54.3551L24.5117 52.1551C24.1991 51.8427 23.7753 51.6672 23.3333 51.6672C22.8914 51.6672 22.4676 51.8427 22.155 52.1551L20.4533 53.8568L18.1383 49.2518C18.0109 48.9978 17.8206 48.7806 17.5856 48.6208C17.3506 48.4611 17.0786 48.3641 16.7956 48.339C16.5125 48.314 16.2277 48.3617 15.9683 48.4777C15.7089 48.5937 15.4834 48.7741 15.3133 49.0018L10.3333 55.6668C10.0681 56.0204 9.95425 56.4649 10.0168 56.9025C10.0793 57.3401 10.3131 57.7349 10.6667 58.0001C11.0203 58.2654 11.4648 58.3792 11.9024 58.3167C12.34 58.2542 12.7348 58.0204 13 57.6668L16.3683 53.1668L18.5083 57.4235C18.6268 57.659 18.7995 57.863 19.0122 58.0188C19.2249 58.1746 19.4715 58.2778 19.7318 58.3197C19.9921 58.3617 20.2586 58.3413 20.5095 58.2603C20.7604 58.1792 20.9885 58.0398 21.175 57.8535L23.3333 55.6901L25.4883 57.8451C25.7929 58.1497 26.2036 58.3245 26.6343 58.3329C27.0649 58.3413 27.4821 58.1826 27.7983 57.8901L29.465 56.3518C29.7897 56.0517 29.9818 55.6349 29.9992 55.1931C30.0165 54.7512 29.8576 54.3206 29.5575 53.996C29.2574 53.6713 28.8405 53.4792 28.3987 53.4618C27.9569 53.4445 27.5263 53.6033 27.2017 53.9035L26.7117 54.3551Z" fill="#9E9E9E"/>
<path d="M55 6.6665H11.6667C10.7462 6.6665 10 7.4127 10 8.33317V14.9998C10 15.9203 10.7462 16.6665 11.6667 16.6665H55C55.9205 16.6665 56.6667 15.9203 56.6667 14.9998V8.33317C56.6667 7.4127 55.9205 6.6665 55 6.6665Z" fill="#9E9E9E"/>
</svg>
