<svg width="100" height="70" viewBox="0 0 100 70" fill="none" xmlns="http://www.w3.org/2000/svg">
<path d="M19.7011 51.4747V56.3895H63.8807L73.2953 54.6235V50.2725C67.8274 48.9321 62.8381 49.0491 57.3065 49.9C57.3279 52.166 56.4874 54.985 54.2002 54.985C53.4768 54.985 52.7747 54.6764 52.2854 54.1342C51.2747 52.9853 51.8386 52.1556 51.5726 50.9428C51.2642 50.9959 50.945 51.0599 50.6364 51.1238C49.8704 56.815 44.9664 55.0917 45.1048 52.1875C44.6686 52.2726 44.2112 52.3469 43.7538 52.4216C43.6262 52.8257 43.4666 53.2196 43.2858 53.5919C42.2326 55.6769 39.1583 55.3471 38.5306 53.0917L33.4775 53.3258C28.8711 53.3258 24.3393 52.7194 19.7011 51.4747Z" fill="#9E9E9E"/>
<path d="M0.552856 58.0596V64.1978C0.552856 65.8891 1.92522 67.2615 3.61657 67.2615H13.3929C15.0843 67.2615 16.4566 65.8891 16.4566 64.1978V62.8787H10.2547C6.31856 62.8362 2.80805 60.9533 0.552856 58.0596Z" fill="#9E9E9E"/>
<path d="M99.8691 61.5912L98.5926 57.3149C96.3905 60.5914 92.6885 62.7723 88.4865 62.8679L83.8377 63.5488L84.6248 66.1657C85.1142 67.7828 86.8269 68.6975 88.4439 68.219L97.816 65.3999C99.4329 64.921 100.358 63.2189 99.8691 61.5912Z" fill="#9E9E9E"/>
<path d="M33.0944 11.9015C34.0092 10.8697 34.8071 9.72083 35.4029 8.35905C34.0945 8.95466 32.9348 9.75259 31.903 10.6676C31.786 9.27384 31.5413 7.92284 31.0308 6.5293C30.5095 7.92284 30.2328 9.31638 30.148 10.7101C29.1161 9.79514 27.9245 8.95466 26.6055 8.35905C27.2013 9.72083 27.999 10.8697 28.914 11.9015C27.5205 11.9868 26.1695 12.2632 24.7757 12.7845C26.1693 13.2951 27.5203 13.5397 28.914 13.6568C27.9992 14.6888 27.2013 15.8481 26.6055 17.1992C27.9245 16.5611 29.0736 15.7634 30.1054 14.8909C30.233 16.2419 30.5097 17.6355 31.031 18.9972C31.5417 17.6355 31.7864 16.2421 31.9032 14.8909C32.935 15.7634 34.0947 16.5611 35.4031 17.1992C34.8073 15.8483 34.0094 14.6888 33.0946 13.6568C34.4882 13.5397 35.8392 13.2951 37.2329 12.7845C35.839 12.2632 34.488 11.9868 33.0944 11.9015Z" fill="#9E9E9E"/>
<path d="M94.0714 26.9648C93.9118 26.7946 93.731 26.6458 93.5715 26.4754C95.2416 26.5286 96.6565 25.9436 97.2627 24.7733C98.2203 22.9436 96.8904 20.3372 94.2627 18.7096C94.082 18.582 93.8691 18.4755 93.6564 18.3693C92.6457 17.8374 91.6033 17.5288 90.6246 17.4225C90.3162 17.3692 89.9968 17.5502 89.848 17.8374L88.7737 19.9118C88.5929 20.2629 88.1567 20.4012 87.7844 20.2096L85.242 18.8798L81.2421 6.9653C79.4657 3.06111 75.6252 0.507923 71.3487 0.358923C56.647 -0.119641 41.9454 -0.119641 27.265 0.358923C22.9779 0.507923 19.1482 3.06092 17.3504 6.9653L13.3825 18.8053H12.7336C12.3399 18.8053 12.0102 18.4863 12.0102 18.0821V15.7418C12.0102 15.4226 11.808 15.1354 11.5102 15.0183C10.5955 14.6674 9.53167 14.4545 8.38261 14.4545C4.97836 14.4545 2.22323 16.2631 2.22323 18.4863C2.22323 20.6884 4.91464 22.465 8.25498 22.5073H12.0847C5.10618 24.3796 0 30.7412 0 38.2835V50.347C0 56.049 4.58488 60.6872 10.2551 60.7509H17.5741V48.6343C25.5952 51.198 32.3184 51.5278 38.4033 50.9745C37.9248 48.4429 32.9354 45.6131 37.7544 38.0921C39.233 35.8687 37.7013 34.9008 39.0842 33.3688C41.0096 31.2305 44.7117 33.1242 44.0522 38.507C45.9776 36.1987 44.2437 34.9433 45.6692 33.3688C47.6054 31.2199 51.3287 33.1348 50.6372 38.5495C52.6265 35.6774 50.8181 35.0071 52.2754 33.3902C53.4668 32.071 55.6477 32.3051 56.4668 33.9539C57.6262 36.2836 57.5731 39.0708 56.3178 41.4111C54.4349 44.6558 56.2647 44.9963 56.9773 47.794C62.743 46.9004 68.6365 46.6771 75.4237 48.6345V56.3895C46.7963 62.2425 42.6861 61.3059 35.1802 65.7934L29.0953 69.4423L88.3163 60.7511C94.0183 60.6874 98.6031 56.049 98.6031 50.3472V38.2625C98.6031 33.8901 96.8798 29.9115 94.0714 26.9648ZM24.9243 40.9537C20.6584 44.7197 14.3077 45.7407 6.31857 44.5493C5.68022 44.4536 5.21225 43.911 5.21225 43.262V37.3367C5.21225 36.5919 5.85059 35.9858 6.5952 36.0389C13.4886 36.4431 19.9034 37.1027 24.5095 38.7303C25.4456 39.06 25.6797 40.2942 24.9243 40.9537ZM33.5838 38.4537C33.4348 39.0175 32.8603 39.3686 32.2859 39.2196C31.7221 39.0814 31.3711 38.4962 31.5199 37.9324C31.8922 36.4537 30.69 34.9218 29.4241 34.124C26.403 32.22 20.4457 32.0071 19.4031 27.0497C19.2861 26.4753 19.6584 25.9114 20.233 25.7946C20.8074 25.6669 21.3713 26.0392 21.4883 26.6137C22.2117 30.071 27.4987 30.4008 30.5518 32.3262C32.52 33.5604 34.2113 35.9326 33.5838 38.4537ZM15.6267 21.9329C15.5842 21.9329 15.5311 21.9329 15.4885 21.9543L20.1479 8.08221C21.4883 5.27376 24.2329 3.47596 27.3605 3.35892C30.7967 3.25266 34.2327 3.16757 37.6687 3.11424C37.5625 3.33774 35.7964 6.85884 35.7433 6.9653C36.137 7.01843 41.6368 7.65658 41.7431 7.66736L39.8388 15.6351C40.1154 15.0287 44.062 6.43341 44.1153 6.32695C43.892 6.25245 40.3601 5.10378 40.2539 5.07183L41.8284 3.05053C51.6472 2.94427 61.4661 3.05053 71.2423 3.35892C72.7317 3.42283 74.1252 3.85905 75.3166 4.59306C76.657 5.41217 77.7528 6.60358 78.4548 8.08221L83.1142 21.9543C83.0503 21.9329 83.0186 21.9329 82.9546 21.9329C59.7001 20.9862 38.8921 20.9862 15.6267 21.9329ZM61.2638 26.3159C54.0193 25.1245 50.7746 29.1243 51.53 32.2625C51.8598 33.6349 49.7959 34.1348 49.4662 32.7626C48.4237 28.4648 52.3809 22.6883 61.6147 24.2203C66.1679 24.9649 71.8273 27.4649 76.093 25.0074C76.6035 24.7096 77.2525 24.8798 77.5505 25.3903C77.8377 25.9008 77.6675 26.5498 77.1568 26.8477C72.0294 29.8052 65.7636 27.0605 61.2638 26.3159ZM93.0288 41.9855C85.646 45.2833 79.2632 46.0174 74.1356 43.5387C73.2314 43.1026 73.125 41.8579 73.9441 41.2835C77.9333 38.4748 83.9331 36.1026 90.4648 33.858C91.1669 33.6133 91.9329 34.0176 92.1456 34.7408L93.7412 40.4428C93.9118 41.0602 93.614 41.7089 93.0288 41.9855Z" fill="#9E9E9E"/>
<path d="M60.2957 11.8266C61.0084 11.0181 61.6255 10.1245 62.0829 9.0821C61.0723 9.55008 60.1787 10.1565 59.3809 10.8691C59.2853 9.79475 59.1043 8.74155 58.7 7.66699C58.2958 8.74136 58.0831 9.82651 58.0191 10.9011C57.2212 10.1882 56.2958 9.55008 55.2852 9.0821C55.7428 10.1245 56.3596 11.0181 57.0724 11.8266C55.9873 11.8798 54.9448 12.1033 53.8703 12.4967C54.9447 12.901 55.9873 13.082 57.0724 13.1776C56.3596 13.9756 55.7426 14.869 55.2852 15.9116C56.2958 15.4222 57.1895 14.8053 57.9874 14.1246C58.0831 15.1778 58.2958 16.2521 58.7 17.2947C59.1043 16.2523 59.2851 15.1778 59.3809 14.1246C60.1789 14.8053 61.0723 15.4224 62.0829 15.9116C61.6255 14.8692 61.0085 13.9756 60.2957 13.1776C61.3809 13.082 62.4233 12.901 63.4978 12.4967C62.4233 12.1033 61.3809 11.8798 60.2957 11.8266Z" fill="#9E9E9E"/>
<path d="M38.6529 46.9419C38.995 47.5524 40.8798 49.3798 40.5748 52.3651C40.5262 52.8419 41.1684 53.0542 41.3837 52.626C44.0222 47.38 37.8508 46.2759 41.2598 40.4045C42.2538 38.5444 42.1714 36.4558 41.3766 34.8768C41.1618 34.4498 40.513 34.6431 40.563 35.1181C40.6846 36.2721 40.5072 37.3739 40.0837 38.3297C39.4342 39.7152 36.3722 42.7983 38.6529 46.9419Z" fill="#9E9E9E"/>
<path d="M44.4268 43.7533C44.4535 47.8128 47.6739 48.5762 47.2318 52.2354C47.1739 52.7133 47.8413 52.9186 48.0446 52.482C48.7737 50.9169 48.8121 48.897 47.8517 47.0994C44.4435 41.2184 50.6182 40.1127 47.9597 34.8655C47.7462 34.4442 47.1024 34.6448 47.1522 35.1145C47.6143 39.4767 44.4613 39.4682 44.4268 43.7533Z" fill="#9E9E9E"/>
<path d="M53.7607 52.3637C53.7121 52.8358 54.3547 53.0424 54.5674 52.6181C57.1763 47.4094 51.0705 46.2076 54.4394 40.4049C55.4289 38.5528 55.3519 36.475 54.5669 34.8982C54.3524 34.4676 53.7042 34.666 53.7536 35.1444C53.9009 36.5711 53.5705 37.9774 52.6797 39.347C47.9297 45.5869 54.2943 47.1885 53.7607 52.3637Z" fill="#9E9E9E"/>
</svg>
