<svg width="101" height="75" viewBox="0 0 101 75" fill="none" xmlns="http://www.w3.org/2000/svg">
<g clip-path="url(#clip0_201_1230)">
<path d="M93.1094 -0.5H33.1406C32.7221 -0.5 32.3207 -0.368304 32.0247 -0.133884C31.7288 0.100537 31.5625 0.418479 31.5625 0.75V10.75H18.9375C18.519 10.75 18.1176 10.8817 17.8216 11.1161C17.5256 11.3505 17.3594 11.6685 17.3594 12V59.5H7.89062C7.47208 59.5 7.07068 59.6317 6.77472 59.8661C6.47877 60.1005 6.3125 60.4185 6.3125 60.75V65.75C6.31576 68.0699 7.48067 70.294 9.55165 71.9343C11.6226 73.5747 14.4306 74.4974 17.3594 74.5H72.5938C74.6857 74.498 76.6913 73.8389 78.1705 72.6673C79.6498 71.4956 80.4819 69.907 80.4844 68.25V63.25H93.1094C93.5279 63.25 93.9293 63.1183 94.2253 62.8839C94.5212 62.6495 94.6875 62.3315 94.6875 62V0.75C94.6875 0.418479 94.5212 0.100537 94.2253 -0.133884C93.9293 -0.368304 93.5279 -0.5 93.1094 -0.5ZM17.3594 72C15.2674 71.998 13.2618 71.3389 11.7826 70.1673C10.3033 68.9956 9.47121 67.407 9.46875 65.75V62H64.7031V68.25C64.7066 68.639 64.7561 69.0268 64.851 69.4085C64.8797 69.5294 64.926 69.6436 64.9634 69.7619C65.0407 70.0133 65.1379 70.2607 65.2544 70.5025C65.3175 70.6296 65.3853 70.7525 65.4579 70.8753C65.5902 71.0987 65.739 71.3158 65.9038 71.5253C65.989 71.634 66.0695 71.7435 66.1627 71.8478C66.2066 71.8969 66.2396 71.9521 66.285 72.0001L17.3594 72ZM77.3281 68.25C77.3281 69.2446 76.8293 70.1984 75.9415 70.9016C75.0536 71.6049 73.8494 72 72.5938 72C71.3381 72 70.1339 71.6049 69.246 70.9016C68.3582 70.1984 67.8594 69.2446 67.8594 68.25V60.75C67.8594 60.4185 67.6931 60.1005 67.3972 59.8661C67.1012 59.6317 66.6998 59.5 66.2812 59.5H20.5156V13.25H77.3281V68.25ZM91.5312 60.75H80.4844V12C80.4844 11.6685 80.3181 11.3505 80.0222 11.1161C79.7262 10.8817 79.3248 10.75 78.9062 10.75H34.7188V2H91.5312V60.75Z" fill="#151515"/>
<path d="M66.2812 19.5H31.5625C31.144 19.5 30.7426 19.6317 30.4466 19.8661C30.1506 20.1005 29.9844 20.4185 29.9844 20.75V28.25C29.9844 28.5815 30.1506 28.8995 30.4466 29.1339C30.7426 29.3683 31.144 29.5 31.5625 29.5H66.2812C66.6998 29.5 67.1012 29.3683 67.3972 29.1339C67.6931 28.8995 67.8594 28.5815 67.8594 28.25V20.75C67.8594 20.4185 67.6931 20.1005 67.3972 19.8661C67.1012 19.6317 66.6998 19.5 66.2812 19.5ZM64.7031 27H33.1406V22H64.7031V27Z" fill="#151515"/>
<path d="M66.2812 34.5H37.875C37.4565 34.5 37.0551 34.6317 36.7591 34.8661C36.4631 35.1005 36.2969 35.4185 36.2969 35.75C36.2969 36.0815 36.4631 36.3995 36.7591 36.6339C37.0551 36.8683 37.4565 37 37.875 37H66.2812C66.6998 37 67.1012 36.8683 67.3972 36.6339C67.6931 36.3995 67.8594 36.0815 67.8594 35.75C67.8594 35.4185 67.6931 35.1005 67.3972 34.8661C67.1012 34.6317 66.6998 34.5 66.2812 34.5Z" fill="#151515"/>
<path d="M66.2812 42H31.5625C31.144 42 30.7426 42.1317 30.4466 42.3661C30.1506 42.6005 29.9844 42.9185 29.9844 43.25C29.9844 43.5815 30.1506 43.8995 30.4466 44.1339C30.7426 44.3683 31.144 44.5 31.5625 44.5H66.2812C66.6998 44.5 67.1012 44.3683 67.3972 44.1339C67.6931 43.8995 67.8594 43.5815 67.8594 43.25C67.8594 42.9185 67.6931 42.6005 67.3972 42.3661C67.1012 42.1317 66.6998 42 66.2812 42Z" fill="#151515"/>
<path d="M66.2812 49.5H31.5625C31.144 49.5 30.7426 49.6317 30.4466 49.8661C30.1506 50.1005 29.9844 50.4185 29.9844 50.75C29.9844 51.0815 30.1506 51.3995 30.4466 51.6339C30.7426 51.8683 31.144 52 31.5625 52H66.2812C66.6998 52 67.1012 51.8683 67.3972 51.6339C67.6931 51.3995 67.8594 51.0815 67.8594 50.75C67.8594 50.4185 67.6931 50.1005 67.3972 49.8661C67.1012 49.6317 66.6998 49.5 66.2812 49.5Z" fill="#151515"/>
</g>
<defs>
<clipPath id="clip0_201_1230">
<rect width="101" height="75" fill="white"/>
</clipPath>
</defs>
</svg>
