<svg width="112" height="78" viewBox="0 0 112 78" fill="none" xmlns="http://www.w3.org/2000/svg">
<g clip-path="url(#clip0_227_677)">
<rect width="111.123" height="78" fill="white"/>
<mask id="path-1-inside-1_227_677" fill="white">
<path fill-rule="evenodd" clip-rule="evenodd" d="M7.699 40.2868C-0.622763 36.058 0.337091 31.3402 8.69507 31.8292L10.5695 35.3154L14.427 23.3172C15.9483 18.5904 18.4657 14.262 23.4189 14.262H53.5366V18.9888H25.0579C21.2909 18.9888 19.3531 22.2487 18.194 25.8436L14.5719 38.032H53.5094V59.6559C53.5237 61.5263 54.2736 63.3159 55.5971 64.6377C56.9206 65.9595 58.7112 66.7071 60.5816 66.719H92.7639L92.5375 70.3411V75.3305C92.5375 76.0759 92.2421 76.7908 91.7159 77.3187C91.1897 77.8465 90.4757 78.1443 89.7304 78.1467H77.7503C77.0057 78.1419 76.2931 77.8434 75.7674 77.316C75.2418 76.7887 74.9455 76.0751 74.9432 75.3305V73.112H18.2212V75.3667C18.22 75.7378 18.1457 76.1049 18.0027 76.4472C17.8596 76.7895 17.6505 77.1003 17.3873 77.3618C17.1241 77.6233 16.812 77.8305 16.4688 77.9713C16.1255 78.1122 15.7579 78.1841 15.3869 78.1829H3.40682C2.66065 78.1805 1.94573 77.8831 1.41812 77.3554C0.890496 76.8278 0.593026 76.1129 0.590638 75.3667V68.8832C0.581667 68.7384 0.581667 68.5933 0.590638 68.4485C-0.314886 56.7944 -1.60073 46.2904 7.66278 40.2868H7.699ZM64.6474 6.78237H62.4741C62.1262 6.77996 61.7813 6.84671 61.4594 6.97874C61.1375 7.11077 60.8451 7.30544 60.5991 7.55145C60.3531 7.79746 60.1584 8.08991 60.0264 8.4118C59.8943 8.73368 59.8276 9.0786 59.83 9.4265V58.5602C59.8288 58.9074 59.8964 59.2513 60.029 59.5721C60.1616 59.893 60.3564 60.1843 60.6023 60.4294C60.8482 60.6744 61.1402 60.8683 61.4615 60.9998C61.7828 61.1312 62.127 61.1977 62.4741 61.1953H98.6951C99.0422 61.1977 99.3864 61.1312 99.7077 60.9998C100.029 60.8683 100.321 60.6744 100.567 60.4294C100.813 60.1843 101.008 59.893 101.14 59.5721C101.273 59.2513 101.34 58.9074 101.339 58.5602V56.1425H98.3872V58.2705H62.8092V9.70721H64.6202V6.77332L64.6474 6.78237ZM76.6637 45.0408H102.525V42.5596H76.6637V45.0408ZM76.6637 37.4615H102.525V34.9804H76.6637V37.4615ZM76.6637 14.7148H85.2752V12.2427H76.6637V14.7148ZM76.6637 22.294H88.8882V19.8219H76.6637V22.294ZM76.6637 29.8732H102.779V27.4011H76.6637V29.8823V29.8732ZM96.2864 5.63236L105.939 15.7471H96.2864V5.63236ZM111.264 17.042C111.267 16.6913 111.154 16.3495 110.942 16.0696C110.731 15.7896 110.434 15.5871 110.096 15.4935L95.9242 0.58859C95.7757 0.404917 95.5881 0.256743 95.375 0.154906C95.162 0.0530695 94.9288 0.000143858 94.6927 0L71.0585 0C70.6803 0 70.3059 0.0744822 69.9565 0.219194C69.6072 0.363906 69.2897 0.576013 69.0223 0.843405C68.7549 1.1108 68.5428 1.42824 68.3981 1.7776C68.2534 2.12697 68.1789 2.50142 68.1789 2.87957V50.1932C68.1802 50.9568 68.4829 51.6889 69.0211 52.2306C69.5649 52.7655 70.2957 53.0676 71.0585 53.0727H108.384C109.148 53.0727 109.88 52.7694 110.42 52.2293C110.96 51.6893 111.264 50.9569 111.264 50.1932V17.042ZM108.049 18.9617V49.8491H71.4026V3.20555H93.0718V17.3498C93.0742 17.7781 93.246 18.1881 93.5497 18.4901C93.8534 18.7921 94.2643 18.9617 94.6927 18.9617H108.049ZM23.0295 54.105L12.3624 52.7649C9.84509 52.4842 9.175 53.5436 10.0262 55.7078L11.1853 58.5059C11.5203 59.1712 12.0347 59.7295 12.6703 60.1177C13.3981 60.5376 14.2208 60.7651 15.0609 60.7788L24.5598 60.8512C26.8599 60.8512 27.856 59.9457 27.1315 57.8177C26.877 56.8779 26.3604 56.0298 25.6421 55.3725C24.9238 54.7151 24.0334 54.2755 23.0748 54.105H23.0295Z"/>
</mask>
<path fill-rule="evenodd" clip-rule="evenodd" d="M7.699 40.2868C-0.622763 36.058 0.337091 31.3402 8.69507 31.8292L10.5695 35.3154L14.427 23.3172C15.9483 18.5904 18.4657 14.262 23.4189 14.262H53.5366V18.9888H25.0579C21.2909 18.9888 19.3531 22.2487 18.194 25.8436L14.5719 38.032H53.5094V59.6559C53.5237 61.5263 54.2736 63.3159 55.5971 64.6377C56.9206 65.9595 58.7112 66.7071 60.5816 66.719H92.7639L92.5375 70.3411V75.3305C92.5375 76.0759 92.2421 76.7908 91.7159 77.3187C91.1897 77.8465 90.4757 78.1443 89.7304 78.1467H77.7503C77.0057 78.1419 76.2931 77.8434 75.7674 77.316C75.2418 76.7887 74.9455 76.0751 74.9432 75.3305V73.112H18.2212V75.3667C18.22 75.7378 18.1457 76.1049 18.0027 76.4472C17.8596 76.7895 17.6505 77.1003 17.3873 77.3618C17.1241 77.6233 16.812 77.8305 16.4688 77.9713C16.1255 78.1122 15.7579 78.1841 15.3869 78.1829H3.40682C2.66065 78.1805 1.94573 77.8831 1.41812 77.3554C0.890496 76.8278 0.593026 76.1129 0.590638 75.3667V68.8832C0.581667 68.7384 0.581667 68.5933 0.590638 68.4485C-0.314886 56.7944 -1.60073 46.2904 7.66278 40.2868H7.699ZM64.6474 6.78237H62.4741C62.1262 6.77996 61.7813 6.84671 61.4594 6.97874C61.1375 7.11077 60.8451 7.30544 60.5991 7.55145C60.3531 7.79746 60.1584 8.08991 60.0264 8.4118C59.8943 8.73368 59.8276 9.0786 59.83 9.4265V58.5602C59.8288 58.9074 59.8964 59.2513 60.029 59.5721C60.1616 59.893 60.3564 60.1843 60.6023 60.4294C60.8482 60.6744 61.1402 60.8683 61.4615 60.9998C61.7828 61.1312 62.127 61.1977 62.4741 61.1953H98.6951C99.0422 61.1977 99.3864 61.1312 99.7077 60.9998C100.029 60.8683 100.321 60.6744 100.567 60.4294C100.813 60.1843 101.008 59.893 101.14 59.5721C101.273 59.2513 101.34 58.9074 101.339 58.5602V56.1425H98.3872V58.2705H62.8092V9.70721H64.6202V6.77332L64.6474 6.78237ZM76.6637 45.0408H102.525V42.5596H76.6637V45.0408ZM76.6637 37.4615H102.525V34.9804H76.6637V37.4615ZM76.6637 14.7148H85.2752V12.2427H76.6637V14.7148ZM76.6637 22.294H88.8882V19.8219H76.6637V22.294ZM76.6637 29.8732H102.779V27.4011H76.6637V29.8823V29.8732ZM96.2864 5.63236L105.939 15.7471H96.2864V5.63236ZM111.264 17.042C111.267 16.6913 111.154 16.3495 110.942 16.0696C110.731 15.7896 110.434 15.5871 110.096 15.4935L95.9242 0.58859C95.7757 0.404917 95.5881 0.256743 95.375 0.154906C95.162 0.0530695 94.9288 0.000143858 94.6927 0L71.0585 0C70.6803 0 70.3059 0.0744822 69.9565 0.219194C69.6072 0.363906 69.2897 0.576013 69.0223 0.843405C68.7549 1.1108 68.5428 1.42824 68.3981 1.7776C68.2534 2.12697 68.1789 2.50142 68.1789 2.87957V50.1932C68.1802 50.9568 68.4829 51.6889 69.0211 52.2306C69.5649 52.7655 70.2957 53.0676 71.0585 53.0727H108.384C109.148 53.0727 109.88 52.7694 110.42 52.2293C110.96 51.6893 111.264 50.9569 111.264 50.1932V17.042ZM108.049 18.9617V49.8491H71.4026V3.20555H93.0718V17.3498C93.0742 17.7781 93.246 18.1881 93.5497 18.4901C93.8534 18.7921 94.2643 18.9617 94.6927 18.9617H108.049ZM23.0295 54.105L12.3624 52.7649C9.84509 52.4842 9.175 53.5436 10.0262 55.7078L11.1853 58.5059C11.5203 59.1712 12.0347 59.7295 12.6703 60.1177C13.3981 60.5376 14.2208 60.7651 15.0609 60.7788L24.5598 60.8512C26.8599 60.8512 27.856 59.9457 27.1315 57.8177C26.877 56.8779 26.3604 56.0298 25.6421 55.3725C24.9238 54.7151 24.0334 54.2755 23.0748 54.105H23.0295Z" fill="white" stroke="#151515" stroke-width="4" mask="url(#path-1-inside-1_227_677)"/>
<path d="M11.6048 39.0174C11.5578 38.6416 10.9932 39.0961 10.9849 39.3848C10.9718 39.8422 11.2266 39.7406 11.6048 39.7406" stroke="#151515" stroke-linecap="round"/>
<path d="M11.6048 38.7072C11.6048 38.4247 11.5943 38.1399 11.6048 37.8577C11.6173 37.5201 11.8894 37.4335 12.0639 37.2091C12.5799 36.5457 12.4425 38.0823 12.018 38.2709C11.7201 38.4033 11.8 37.7131 11.8114 37.5478C11.8443 37.0708 12.2653 36.5887 12.4313 36.153C12.814 35.1483 13.3414 34.2324 13.6194 33.2316C13.8911 32.2534 13.9715 31.284 14.4746 30.3617C14.7113 29.9277 14.8759 29.4416 15.0945 28.9957C15.3147 28.5464 15.4175 28.0384 15.6397 27.6125C15.8462 27.2167 16.0202 26.8167 16.208 26.4071C16.3168 26.1696 16.3916 25.8308 16.5695 25.638C16.7593 25.4325 16.7093 25.1696 16.8737 24.9665C17.359 24.3671 17.634 23.4464 17.9987 22.7625C18.2548 22.2823 18.1518 21.7595 18.3661 21.2931C18.5029 20.9954 18.6816 20.8844 18.6301 20.524C18.6287 20.5143 17.961 21.2483 17.8954 21.3505C17.5432 21.8995 17.5424 22.5407 17.2755 23.1126C17.0116 23.6781 16.7143 24.2226 16.4088 24.7656C16.3858 24.8066 15.9408 25.7205 15.8636 25.4716C15.4742 24.2169 16.8204 22.9638 17.4362 22.068C17.7805 21.5672 18.088 21.1848 18.5038 20.7536C18.8238 20.4218 18.9815 19.966 19.3074 19.6401C19.8958 19.0517 20.2999 18.4442 20.6734 17.7346C20.722 17.6422 21.1812 17.1854 21.1899 17.2639C21.2163 17.5015 20.0422 17.9314 19.8182 18.2052C19.6232 18.4435 19.5455 18.7183 19.2901 18.9169C19.1557 19.0215 19.0019 18.932 18.8884 19.0834C18.7002 19.3342 18.46 19.5003 18.2398 19.7205C18.1392 19.8211 17.4478 20.6733 17.6486 20.834C17.8629 21.0054 17.9069 21.4124 17.9069 21.6605" stroke="#151515" stroke-linecap="round"/>
<path d="M21.4195 17.3213C21.306 17.3087 21.0991 17.0893 21.2818 17.0229C21.4888 16.9476 21.8524 16.9488 22.0796 16.9138C22.5352 16.8437 23.0462 16.9081 23.5088 16.9081C24.6356 16.9081 25.7625 16.9081 26.8894 16.9081C27.4402 16.9081 27.8987 16.6182 28.4219 16.5981C28.8052 16.5834 29.2198 16.5068 29.6272 16.4948C30.0973 16.481 30.5243 16.1849 30.9645 16.1849C31.3797 16.1849 31.7949 16.1849 32.21 16.1849C32.4176 16.1849 33.0939 16.0578 33.0939 16.3915C33.0939 16.6858 32.724 16.6897 32.52 16.7014C32.1591 16.7223 31.9142 17.0043 31.5557 17.0114C30.9232 17.0238 30.2885 17.0114 29.6559 17.0114C28.7962 17.0114 30.1403 17.0114 30.3332 17.0114C30.8899 17.0114 31.4467 17.0114 32.0034 17.0114C34.9609 17.0114 37.8181 16.5981 40.785 16.5981C41.67 16.5981 40.8636 16.5981 40.4751 16.5981C39.5453 16.5981 38.6155 16.5981 37.6856 16.5981C36.9012 16.5981 36.1168 16.5981 35.3324 16.5981C34.5518 16.5981 33.7712 16.5981 32.9906 16.5981C32.008 16.5981 34.2212 16.5981 34.3222 16.5981C36.8763 16.5981 39.4305 16.5981 41.9846 16.5981C42.6065 16.5981 43.2634 16.6788 43.8959 16.7014C44.465 16.7218 44.9885 16.9081 45.5719 16.9081C46.0978 16.9081 46.6026 16.9019 47.1216 16.9884C48.0621 17.1452 49.1241 17.0114 50.0775 17.0114C50.7968 17.0114 52.9549 17.0114 52.2356 17.0114C51.6151 17.0114 51.0571 16.8047 50.4276 16.8047C49.7811 16.8047 49.134 16.7952 48.4876 16.8047C48.1473 16.8098 47.9 16.9646 47.5922 17.0056C47.139 17.0661 45.7632 17.0114 46.2205 17.0114C47.0395 17.0114 47.8524 17.0191 48.6598 16.8621C48.7432 16.8459 49.3772 16.6673 49.3772 16.5465C49.3772 16.3195 46.7008 16.7014 46.2377 16.7014C45.5652 16.7014 45.1816 16.5569 45.1816 17.3213" stroke="#151515" stroke-linecap="round"/>
</g>
<defs>
<clipPath id="clip0_227_677">
<rect width="111.123" height="78" fill="white"/>
</clipPath>
</defs>
</svg>
